<mxfile host="app.diagrams.net" modified="2023-08-17T01:10:49.740Z" agent="Mozilla/5.0 (Windows NT 10.0; Win64; x64) AppleWebKit/537.36 (KHTML, like Gecko) Chrome/115.0.0.0 Safari/537.36" etag="pV4511M80QMY92Aq_Ro2" version="21.6.8" type="device">
  <diagram name="Página-1" id="t1euFT8w5WC-1Ju3Iv9p">
    <mxGraphModel dx="1635" dy="1567" grid="1" gridSize="10" guides="1" tooltips="1" connect="1" arrows="1" fold="1" page="1" pageScale="1" pageWidth="827" pageHeight="1169" math="0" shadow="0">
      <root>
        <mxCell id="0" />
        <mxCell id="1" parent="0" />
        <mxCell id="z1vdd2tGaupWYWKLR3hU-1" value="entidades:&lt;br&gt;Usuario&lt;br&gt;clinica&lt;br&gt;paciente&lt;br&gt;medico&lt;br&gt;Consulta&lt;br&gt;feedback&lt;br&gt;Prontuario" style="text;html=1;align=center;verticalAlign=middle;resizable=0;points=[];autosize=1;strokeColor=none;fillColor=none;" parent="1" vertex="1">
          <mxGeometry x="-340" y="-280" width="80" height="130" as="geometry" />
        </mxCell>
        <mxCell id="vYEWgBYMP0RqRQ5xHcF0-13" style="edgeStyle=orthogonalEdgeStyle;rounded=0;orthogonalLoop=1;jettySize=auto;html=1;entryX=0;entryY=0.5;entryDx=0;entryDy=0;endArrow=none;endFill=0;" parent="1" source="z1vdd2tGaupWYWKLR3hU-3" target="z1vdd2tGaupWYWKLR3hU-36" edge="1">
          <mxGeometry relative="1" as="geometry" />
        </mxCell>
        <mxCell id="vYEWgBYMP0RqRQ5xHcF0-36" style="edgeStyle=orthogonalEdgeStyle;rounded=0;orthogonalLoop=1;jettySize=auto;html=1;entryX=0.5;entryY=0;entryDx=0;entryDy=0;endArrow=none;endFill=0;" parent="1" source="z1vdd2tGaupWYWKLR3hU-3" target="z1vdd2tGaupWYWKLR3hU-92" edge="1">
          <mxGeometry relative="1" as="geometry" />
        </mxCell>
        <mxCell id="z1vdd2tGaupWYWKLR3hU-3" value="Usuario" style="rounded=1;whiteSpace=wrap;html=1;fillColor=#d5e8d4;strokeColor=#82b366;" parent="1" vertex="1">
          <mxGeometry x="65" y="-130" width="100" height="50" as="geometry" />
        </mxCell>
        <mxCell id="vYEWgBYMP0RqRQ5xHcF0-24" style="edgeStyle=orthogonalEdgeStyle;rounded=0;orthogonalLoop=1;jettySize=auto;html=1;entryX=0;entryY=0.5;entryDx=0;entryDy=0;endArrow=none;endFill=0;" parent="1" source="z1vdd2tGaupWYWKLR3hU-4" target="z1vdd2tGaupWYWKLR3hU-38" edge="1">
          <mxGeometry relative="1" as="geometry">
            <mxPoint x="605" y="295" as="sourcePoint" />
          </mxGeometry>
        </mxCell>
        <mxCell id="z1vdd2tGaupWYWKLR3hU-4" value="Paciente" style="rounded=1;whiteSpace=wrap;html=1;fillColor=#d5e8d4;strokeColor=#82b366;" parent="1" vertex="1">
          <mxGeometry x="470" y="258" width="110" height="50" as="geometry" />
        </mxCell>
        <mxCell id="vYEWgBYMP0RqRQ5xHcF0-18" style="edgeStyle=orthogonalEdgeStyle;rounded=0;orthogonalLoop=1;jettySize=auto;html=1;endArrow=none;endFill=0;" parent="1" source="z1vdd2tGaupWYWKLR3hU-5" target="z1vdd2tGaupWYWKLR3hU-96" edge="1">
          <mxGeometry relative="1" as="geometry" />
        </mxCell>
        <mxCell id="vYEWgBYMP0RqRQ5xHcF0-28" style="edgeStyle=orthogonalEdgeStyle;rounded=0;orthogonalLoop=1;jettySize=auto;html=1;entryX=0.25;entryY=0.583;entryDx=0;entryDy=0;entryPerimeter=0;" parent="1" source="z1vdd2tGaupWYWKLR3hU-5" target="vYEWgBYMP0RqRQ5xHcF0-27" edge="1">
          <mxGeometry relative="1" as="geometry" />
        </mxCell>
        <mxCell id="z1vdd2tGaupWYWKLR3hU-5" value="Médico" style="rounded=1;whiteSpace=wrap;html=1;fillColor=#d5e8d4;strokeColor=#82b366;" parent="1" vertex="1">
          <mxGeometry x="470" y="-130" width="110" height="50" as="geometry" />
        </mxCell>
        <mxCell id="vYEWgBYMP0RqRQ5xHcF0-21" style="edgeStyle=orthogonalEdgeStyle;rounded=0;orthogonalLoop=1;jettySize=auto;html=1;entryX=0.5;entryY=0;entryDx=0;entryDy=0;endArrow=none;endFill=0;" parent="1" source="z1vdd2tGaupWYWKLR3hU-6" target="z1vdd2tGaupWYWKLR3hU-74" edge="1">
          <mxGeometry relative="1" as="geometry" />
        </mxCell>
        <mxCell id="vYEWgBYMP0RqRQ5xHcF0-32" style="edgeStyle=orthogonalEdgeStyle;rounded=0;orthogonalLoop=1;jettySize=auto;html=1;entryX=0;entryY=0.5;entryDx=0;entryDy=0;endArrow=none;endFill=0;exitX=1;exitY=0.75;exitDx=0;exitDy=0;" parent="1" source="z1vdd2tGaupWYWKLR3hU-6" target="vYEWgBYMP0RqRQ5xHcF0-31" edge="1">
          <mxGeometry relative="1" as="geometry">
            <mxPoint x="605" y="115" as="sourcePoint" />
          </mxGeometry>
        </mxCell>
        <mxCell id="z1vdd2tGaupWYWKLR3hU-6" value="Consulta" style="rounded=1;whiteSpace=wrap;html=1;fillColor=#d5e8d4;strokeColor=#82b366;" parent="1" vertex="1">
          <mxGeometry x="470" y="80" width="110" height="50" as="geometry" />
        </mxCell>
        <mxCell id="vYEWgBYMP0RqRQ5xHcF0-5" style="edgeStyle=orthogonalEdgeStyle;rounded=0;orthogonalLoop=1;jettySize=auto;html=1;entryX=0.5;entryY=0;entryDx=0;entryDy=0;endArrow=none;endFill=0;" parent="1" source="z1vdd2tGaupWYWKLR3hU-12" target="z1vdd2tGaupWYWKLR3hU-35" edge="1">
          <mxGeometry relative="1" as="geometry" />
        </mxCell>
        <mxCell id="z1vdd2tGaupWYWKLR3hU-12" value="Tipo De Usuario" style="rounded=1;whiteSpace=wrap;html=1;fillColor=#dae8fc;strokeColor=#6c8ebf;" parent="1" vertex="1">
          <mxGeometry x="60" y="-400" width="110" height="50" as="geometry" />
        </mxCell>
        <mxCell id="vYEWgBYMP0RqRQ5xHcF0-8" style="edgeStyle=orthogonalEdgeStyle;rounded=0;orthogonalLoop=1;jettySize=auto;html=1;endArrow=none;endFill=0;" parent="1" source="z1vdd2tGaupWYWKLR3hU-34" target="z1vdd2tGaupWYWKLR3hU-5" edge="1">
          <mxGeometry relative="1" as="geometry" />
        </mxCell>
        <mxCell id="z1vdd2tGaupWYWKLR3hU-34" value="Possui" style="rhombus;whiteSpace=wrap;html=1;fillColor=#ffe6cc;strokeColor=#d79b00;" parent="1" vertex="1">
          <mxGeometry x="490" y="-310" width="70" height="60" as="geometry" />
        </mxCell>
        <mxCell id="vYEWgBYMP0RqRQ5xHcF0-6" style="edgeStyle=orthogonalEdgeStyle;rounded=0;orthogonalLoop=1;jettySize=auto;html=1;entryX=0.5;entryY=0;entryDx=0;entryDy=0;endArrow=none;endFill=0;" parent="1" source="z1vdd2tGaupWYWKLR3hU-35" target="z1vdd2tGaupWYWKLR3hU-3" edge="1">
          <mxGeometry relative="1" as="geometry">
            <mxPoint x="125" y="-140" as="targetPoint" />
          </mxGeometry>
        </mxCell>
        <mxCell id="z1vdd2tGaupWYWKLR3hU-35" value="Possui" style="rhombus;whiteSpace=wrap;html=1;fillColor=#ffe6cc;strokeColor=#d79b00;" parent="1" vertex="1">
          <mxGeometry x="80" y="-280" width="70" height="60" as="geometry" />
        </mxCell>
        <mxCell id="vYEWgBYMP0RqRQ5xHcF0-14" style="edgeStyle=orthogonalEdgeStyle;rounded=0;orthogonalLoop=1;jettySize=auto;html=1;endArrow=none;endFill=0;" parent="1" source="z1vdd2tGaupWYWKLR3hU-36" target="z1vdd2tGaupWYWKLR3hU-5" edge="1">
          <mxGeometry relative="1" as="geometry" />
        </mxCell>
        <mxCell id="z1vdd2tGaupWYWKLR3hU-36" value="Possui" style="rhombus;whiteSpace=wrap;html=1;fillColor=#ffe6cc;strokeColor=#d79b00;" parent="1" vertex="1">
          <mxGeometry x="295" y="-135" width="70" height="60" as="geometry" />
        </mxCell>
        <mxCell id="vYEWgBYMP0RqRQ5xHcF0-25" style="edgeStyle=orthogonalEdgeStyle;rounded=0;orthogonalLoop=1;jettySize=auto;html=1;endArrow=none;endFill=0;" parent="1" source="z1vdd2tGaupWYWKLR3hU-38" target="z1vdd2tGaupWYWKLR3hU-85" edge="1">
          <mxGeometry relative="1" as="geometry" />
        </mxCell>
        <mxCell id="z1vdd2tGaupWYWKLR3hU-38" value="realiza" style="rhombus;whiteSpace=wrap;html=1;fillColor=#ffe6cc;strokeColor=#d79b00;" parent="1" vertex="1">
          <mxGeometry x="685" y="258" width="70" height="50" as="geometry" />
        </mxCell>
        <mxCell id="vYEWgBYMP0RqRQ5xHcF0-7" style="edgeStyle=orthogonalEdgeStyle;rounded=0;orthogonalLoop=1;jettySize=auto;html=1;endArrow=none;endFill=0;" parent="1" source="z1vdd2tGaupWYWKLR3hU-72" target="z1vdd2tGaupWYWKLR3hU-34" edge="1">
          <mxGeometry relative="1" as="geometry" />
        </mxCell>
        <mxCell id="z1vdd2tGaupWYWKLR3hU-72" value="Clinica" style="rounded=1;whiteSpace=wrap;html=1;fillColor=#d5e8d4;strokeColor=#82b366;" parent="1" vertex="1">
          <mxGeometry x="470" y="-430" width="110" height="50" as="geometry" />
        </mxCell>
        <mxCell id="vYEWgBYMP0RqRQ5xHcF0-23" style="edgeStyle=orthogonalEdgeStyle;rounded=0;orthogonalLoop=1;jettySize=auto;html=1;entryX=0.5;entryY=0;entryDx=0;entryDy=0;endArrow=none;endFill=0;" parent="1" source="z1vdd2tGaupWYWKLR3hU-74" target="z1vdd2tGaupWYWKLR3hU-4" edge="1">
          <mxGeometry relative="1" as="geometry" />
        </mxCell>
        <mxCell id="z1vdd2tGaupWYWKLR3hU-74" value="possui" style="rhombus;whiteSpace=wrap;html=1;fillColor=#ffe6cc;strokeColor=#d79b00;" parent="1" vertex="1">
          <mxGeometry x="485" y="170" width="80" height="50" as="geometry" />
        </mxCell>
        <mxCell id="z1vdd2tGaupWYWKLR3hU-85" value="Feedback" style="rounded=1;whiteSpace=wrap;html=1;fillColor=#d5e8d4;strokeColor=#82b366;" parent="1" vertex="1">
          <mxGeometry x="790" y="258" width="110" height="50" as="geometry" />
        </mxCell>
        <mxCell id="vYEWgBYMP0RqRQ5xHcF0-39" style="edgeStyle=orthogonalEdgeStyle;rounded=0;orthogonalLoop=1;jettySize=auto;html=1;entryX=0;entryY=0.5;entryDx=0;entryDy=0;endArrow=none;endFill=0;" parent="1" source="z1vdd2tGaupWYWKLR3hU-92" target="z1vdd2tGaupWYWKLR3hU-4" edge="1">
          <mxGeometry relative="1" as="geometry">
            <Array as="points">
              <mxPoint x="115" y="285" />
            </Array>
          </mxGeometry>
        </mxCell>
        <mxCell id="z1vdd2tGaupWYWKLR3hU-92" value="possui" style="rhombus;whiteSpace=wrap;html=1;fillColor=#ffe6cc;strokeColor=#d79b00;" parent="1" vertex="1">
          <mxGeometry x="85" y="110" width="60" height="50" as="geometry" />
        </mxCell>
        <mxCell id="z1vdd2tGaupWYWKLR3hU-103" value="prontuario" style="rounded=1;whiteSpace=wrap;html=1;fillColor=#d5e8d4;strokeColor=#82b366;" parent="1" vertex="1">
          <mxGeometry x="1000" y="-135" width="110" height="50" as="geometry" />
        </mxCell>
        <mxCell id="vYEWgBYMP0RqRQ5xHcF0-49" style="edgeStyle=orthogonalEdgeStyle;rounded=0;orthogonalLoop=1;jettySize=auto;html=1;entryX=0.75;entryY=0;entryDx=0;entryDy=0;endArrow=none;endFill=0;" parent="1" source="z1vdd2tGaupWYWKLR3hU-111" target="z1vdd2tGaupWYWKLR3hU-72" edge="1">
          <mxGeometry relative="1" as="geometry">
            <Array as="points">
              <mxPoint x="553" y="-475" />
            </Array>
          </mxGeometry>
        </mxCell>
        <mxCell id="z1vdd2tGaupWYWKLR3hU-111" value="Nome" style="ellipse;whiteSpace=wrap;html=1;" parent="1" vertex="1">
          <mxGeometry x="600" y="-490" width="50" height="30" as="geometry" />
        </mxCell>
        <mxCell id="vYEWgBYMP0RqRQ5xHcF0-55" style="edgeStyle=orthogonalEdgeStyle;rounded=0;orthogonalLoop=1;jettySize=auto;html=1;entryX=0;entryY=0.25;entryDx=0;entryDy=0;endArrow=none;endFill=0;" parent="1" source="z1vdd2tGaupWYWKLR3hU-112" target="z1vdd2tGaupWYWKLR3hU-5" edge="1">
          <mxGeometry relative="1" as="geometry" />
        </mxCell>
        <mxCell id="z1vdd2tGaupWYWKLR3hU-112" value="Especialidade" style="ellipse;whiteSpace=wrap;html=1;" parent="1" vertex="1">
          <mxGeometry x="400" y="-235" width="90" height="40" as="geometry" />
        </mxCell>
        <mxCell id="vYEWgBYMP0RqRQ5xHcF0-93" style="edgeStyle=orthogonalEdgeStyle;rounded=0;orthogonalLoop=1;jettySize=auto;html=1;entryX=0.5;entryY=1;entryDx=0;entryDy=0;endArrow=none;endFill=0;" parent="1" source="z1vdd2tGaupWYWKLR3hU-114" target="vYEWgBYMP0RqRQ5xHcF0-10" edge="1">
          <mxGeometry relative="1" as="geometry" />
        </mxCell>
        <mxCell id="z1vdd2tGaupWYWKLR3hU-114" value="Nome" style="ellipse;whiteSpace=wrap;html=1;" parent="1" vertex="1">
          <mxGeometry x="470" y="410" width="50" height="30" as="geometry" />
        </mxCell>
        <mxCell id="vYEWgBYMP0RqRQ5xHcF0-70" style="edgeStyle=orthogonalEdgeStyle;rounded=0;orthogonalLoop=1;jettySize=auto;html=1;entryX=0.5;entryY=1;entryDx=0;entryDy=0;endArrow=none;endFill=0;" parent="1" source="z1vdd2tGaupWYWKLR3hU-116" target="vYEWgBYMP0RqRQ5xHcF0-60" edge="1">
          <mxGeometry relative="1" as="geometry" />
        </mxCell>
        <mxCell id="z1vdd2tGaupWYWKLR3hU-116" value="sexo" style="ellipse;whiteSpace=wrap;html=1;" parent="1" vertex="1">
          <mxGeometry x="364" y="390" width="56" height="40" as="geometry" />
        </mxCell>
        <mxCell id="vYEWgBYMP0RqRQ5xHcF0-2" value="" style="edgeStyle=orthogonalEdgeStyle;rounded=0;orthogonalLoop=1;jettySize=auto;html=1;" parent="1" edge="1">
          <mxGeometry relative="1" as="geometry">
            <mxPoint x="790" y="115" as="targetPoint" />
          </mxGeometry>
        </mxCell>
        <mxCell id="vYEWgBYMP0RqRQ5xHcF0-48" value="" style="edgeStyle=orthogonalEdgeStyle;rounded=0;orthogonalLoop=1;jettySize=auto;html=1;endArrow=none;endFill=0;" parent="1" source="z1vdd2tGaupWYWKLR3hU-145" target="z1vdd2tGaupWYWKLR3hU-72" edge="1">
          <mxGeometry relative="1" as="geometry" />
        </mxCell>
        <mxCell id="z1vdd2tGaupWYWKLR3hU-145" value="endereço" style="ellipse;whiteSpace=wrap;html=1;" parent="1" vertex="1">
          <mxGeometry x="637" y="-420" width="56" height="30" as="geometry" />
        </mxCell>
        <mxCell id="z1vdd2tGaupWYWKLR3hU-149" value="Clinica" style="shape=table;startSize=30;container=1;collapsible=1;childLayout=tableLayout;fixedRows=1;rowLines=0;fontStyle=1;align=center;resizeLast=1;html=1;" parent="1" vertex="1">
          <mxGeometry x="1110" y="540" width="180" height="270" as="geometry" />
        </mxCell>
        <mxCell id="z1vdd2tGaupWYWKLR3hU-150" value="" style="shape=tableRow;horizontal=0;startSize=0;swimlaneHead=0;swimlaneBody=0;fillColor=none;collapsible=0;dropTarget=0;points=[[0,0.5],[1,0.5]];portConstraint=eastwest;top=0;left=0;right=0;bottom=1;" parent="z1vdd2tGaupWYWKLR3hU-149" vertex="1">
          <mxGeometry y="30" width="180" height="30" as="geometry" />
        </mxCell>
        <mxCell id="z1vdd2tGaupWYWKLR3hU-151" value="PK" style="shape=partialRectangle;connectable=0;fillColor=none;top=0;left=0;bottom=0;right=0;fontStyle=1;overflow=hidden;whiteSpace=wrap;html=1;" parent="z1vdd2tGaupWYWKLR3hU-150" vertex="1">
          <mxGeometry width="30" height="30" as="geometry">
            <mxRectangle width="30" height="30" as="alternateBounds" />
          </mxGeometry>
        </mxCell>
        <mxCell id="z1vdd2tGaupWYWKLR3hU-152" value="IdClinica" style="shape=partialRectangle;connectable=0;fillColor=none;top=0;left=0;bottom=0;right=0;align=left;spacingLeft=6;fontStyle=5;overflow=hidden;whiteSpace=wrap;html=1;" parent="z1vdd2tGaupWYWKLR3hU-150" vertex="1">
          <mxGeometry x="30" width="150" height="30" as="geometry">
            <mxRectangle width="150" height="30" as="alternateBounds" />
          </mxGeometry>
        </mxCell>
        <mxCell id="z1vdd2tGaupWYWKLR3hU-153" value="" style="shape=tableRow;horizontal=0;startSize=0;swimlaneHead=0;swimlaneBody=0;fillColor=none;collapsible=0;dropTarget=0;points=[[0,0.5],[1,0.5]];portConstraint=eastwest;top=0;left=0;right=0;bottom=0;" parent="z1vdd2tGaupWYWKLR3hU-149" vertex="1">
          <mxGeometry y="60" width="180" height="30" as="geometry" />
        </mxCell>
        <mxCell id="z1vdd2tGaupWYWKLR3hU-154" value="" style="shape=partialRectangle;connectable=0;fillColor=none;top=0;left=0;bottom=0;right=0;editable=1;overflow=hidden;whiteSpace=wrap;html=1;" parent="z1vdd2tGaupWYWKLR3hU-153" vertex="1">
          <mxGeometry width="30" height="30" as="geometry">
            <mxRectangle width="30" height="30" as="alternateBounds" />
          </mxGeometry>
        </mxCell>
        <mxCell id="z1vdd2tGaupWYWKLR3hU-155" value="Nome" style="shape=partialRectangle;connectable=0;fillColor=none;top=0;left=0;bottom=0;right=0;align=left;spacingLeft=6;overflow=hidden;whiteSpace=wrap;html=1;" parent="z1vdd2tGaupWYWKLR3hU-153" vertex="1">
          <mxGeometry x="30" width="150" height="30" as="geometry">
            <mxRectangle width="150" height="30" as="alternateBounds" />
          </mxGeometry>
        </mxCell>
        <mxCell id="z1vdd2tGaupWYWKLR3hU-156" value="" style="shape=tableRow;horizontal=0;startSize=0;swimlaneHead=0;swimlaneBody=0;fillColor=none;collapsible=0;dropTarget=0;points=[[0,0.5],[1,0.5]];portConstraint=eastwest;top=0;left=0;right=0;bottom=0;" parent="z1vdd2tGaupWYWKLR3hU-149" vertex="1">
          <mxGeometry y="90" width="180" height="30" as="geometry" />
        </mxCell>
        <mxCell id="z1vdd2tGaupWYWKLR3hU-157" value="" style="shape=partialRectangle;connectable=0;fillColor=none;top=0;left=0;bottom=0;right=0;editable=1;overflow=hidden;whiteSpace=wrap;html=1;" parent="z1vdd2tGaupWYWKLR3hU-156" vertex="1">
          <mxGeometry width="30" height="30" as="geometry">
            <mxRectangle width="30" height="30" as="alternateBounds" />
          </mxGeometry>
        </mxCell>
        <mxCell id="z1vdd2tGaupWYWKLR3hU-158" value="Endereço" style="shape=partialRectangle;connectable=0;fillColor=none;top=0;left=0;bottom=0;right=0;align=left;spacingLeft=6;overflow=hidden;whiteSpace=wrap;html=1;" parent="z1vdd2tGaupWYWKLR3hU-156" vertex="1">
          <mxGeometry x="30" width="150" height="30" as="geometry">
            <mxRectangle width="150" height="30" as="alternateBounds" />
          </mxGeometry>
        </mxCell>
        <mxCell id="z1vdd2tGaupWYWKLR3hU-159" value="" style="shape=tableRow;horizontal=0;startSize=0;swimlaneHead=0;swimlaneBody=0;fillColor=none;collapsible=0;dropTarget=0;points=[[0,0.5],[1,0.5]];portConstraint=eastwest;top=0;left=0;right=0;bottom=0;" parent="z1vdd2tGaupWYWKLR3hU-149" vertex="1">
          <mxGeometry y="120" width="180" height="30" as="geometry" />
        </mxCell>
        <mxCell id="z1vdd2tGaupWYWKLR3hU-160" value="" style="shape=partialRectangle;connectable=0;fillColor=none;top=0;left=0;bottom=0;right=0;editable=1;overflow=hidden;whiteSpace=wrap;html=1;" parent="z1vdd2tGaupWYWKLR3hU-159" vertex="1">
          <mxGeometry width="30" height="30" as="geometry">
            <mxRectangle width="30" height="30" as="alternateBounds" />
          </mxGeometry>
        </mxCell>
        <mxCell id="z1vdd2tGaupWYWKLR3hU-161" value="Cep" style="shape=partialRectangle;connectable=0;fillColor=none;top=0;left=0;bottom=0;right=0;align=left;spacingLeft=6;overflow=hidden;whiteSpace=wrap;html=1;" parent="z1vdd2tGaupWYWKLR3hU-159" vertex="1">
          <mxGeometry x="30" width="150" height="30" as="geometry">
            <mxRectangle width="150" height="30" as="alternateBounds" />
          </mxGeometry>
        </mxCell>
        <mxCell id="z1vdd2tGaupWYWKLR3hU-162" style="shape=tableRow;horizontal=0;startSize=0;swimlaneHead=0;swimlaneBody=0;fillColor=none;collapsible=0;dropTarget=0;points=[[0,0.5],[1,0.5]];portConstraint=eastwest;top=0;left=0;right=0;bottom=0;" parent="z1vdd2tGaupWYWKLR3hU-149" vertex="1">
          <mxGeometry y="150" width="180" height="30" as="geometry" />
        </mxCell>
        <mxCell id="z1vdd2tGaupWYWKLR3hU-163" style="shape=partialRectangle;connectable=0;fillColor=none;top=0;left=0;bottom=0;right=0;editable=1;overflow=hidden;whiteSpace=wrap;html=1;" parent="z1vdd2tGaupWYWKLR3hU-162" vertex="1">
          <mxGeometry width="30" height="30" as="geometry">
            <mxRectangle width="30" height="30" as="alternateBounds" />
          </mxGeometry>
        </mxCell>
        <mxCell id="z1vdd2tGaupWYWKLR3hU-164" value="Horario De Abertura" style="shape=partialRectangle;connectable=0;fillColor=none;top=0;left=0;bottom=0;right=0;align=left;spacingLeft=6;overflow=hidden;whiteSpace=wrap;html=1;" parent="z1vdd2tGaupWYWKLR3hU-162" vertex="1">
          <mxGeometry x="30" width="150" height="30" as="geometry">
            <mxRectangle width="150" height="30" as="alternateBounds" />
          </mxGeometry>
        </mxCell>
        <mxCell id="2X15lVWfk-3AgOlMRwci-4" style="shape=tableRow;horizontal=0;startSize=0;swimlaneHead=0;swimlaneBody=0;fillColor=none;collapsible=0;dropTarget=0;points=[[0,0.5],[1,0.5]];portConstraint=eastwest;top=0;left=0;right=0;bottom=0;" vertex="1" parent="z1vdd2tGaupWYWKLR3hU-149">
          <mxGeometry y="180" width="180" height="30" as="geometry" />
        </mxCell>
        <mxCell id="2X15lVWfk-3AgOlMRwci-5" style="shape=partialRectangle;connectable=0;fillColor=none;top=0;left=0;bottom=0;right=0;editable=1;overflow=hidden;whiteSpace=wrap;html=1;" vertex="1" parent="2X15lVWfk-3AgOlMRwci-4">
          <mxGeometry width="30" height="30" as="geometry">
            <mxRectangle width="30" height="30" as="alternateBounds" />
          </mxGeometry>
        </mxCell>
        <mxCell id="2X15lVWfk-3AgOlMRwci-6" value="Horario De Fechamento" style="shape=partialRectangle;connectable=0;fillColor=none;top=0;left=0;bottom=0;right=0;align=left;spacingLeft=6;overflow=hidden;whiteSpace=wrap;html=1;" vertex="1" parent="2X15lVWfk-3AgOlMRwci-4">
          <mxGeometry x="30" width="150" height="30" as="geometry">
            <mxRectangle width="150" height="30" as="alternateBounds" />
          </mxGeometry>
        </mxCell>
        <mxCell id="z1vdd2tGaupWYWKLR3hU-232" style="shape=tableRow;horizontal=0;startSize=0;swimlaneHead=0;swimlaneBody=0;fillColor=none;collapsible=0;dropTarget=0;points=[[0,0.5],[1,0.5]];portConstraint=eastwest;top=0;left=0;right=0;bottom=0;" parent="z1vdd2tGaupWYWKLR3hU-149" vertex="1">
          <mxGeometry y="210" width="180" height="30" as="geometry" />
        </mxCell>
        <mxCell id="z1vdd2tGaupWYWKLR3hU-233" style="shape=partialRectangle;connectable=0;fillColor=none;top=0;left=0;bottom=0;right=0;editable=1;overflow=hidden;whiteSpace=wrap;html=1;" parent="z1vdd2tGaupWYWKLR3hU-232" vertex="1">
          <mxGeometry width="30" height="30" as="geometry">
            <mxRectangle width="30" height="30" as="alternateBounds" />
          </mxGeometry>
        </mxCell>
        <mxCell id="z1vdd2tGaupWYWKLR3hU-234" value="CNPJ" style="shape=partialRectangle;connectable=0;fillColor=none;top=0;left=0;bottom=0;right=0;align=left;spacingLeft=6;overflow=hidden;whiteSpace=wrap;html=1;" parent="z1vdd2tGaupWYWKLR3hU-232" vertex="1">
          <mxGeometry x="30" width="150" height="30" as="geometry">
            <mxRectangle width="150" height="30" as="alternateBounds" />
          </mxGeometry>
        </mxCell>
        <mxCell id="z1vdd2tGaupWYWKLR3hU-241" style="shape=tableRow;horizontal=0;startSize=0;swimlaneHead=0;swimlaneBody=0;fillColor=none;collapsible=0;dropTarget=0;points=[[0,0.5],[1,0.5]];portConstraint=eastwest;top=0;left=0;right=0;bottom=0;" parent="z1vdd2tGaupWYWKLR3hU-149" vertex="1">
          <mxGeometry y="240" width="180" height="30" as="geometry" />
        </mxCell>
        <mxCell id="z1vdd2tGaupWYWKLR3hU-242" style="shape=partialRectangle;connectable=0;fillColor=none;top=0;left=0;bottom=0;right=0;editable=1;overflow=hidden;whiteSpace=wrap;html=1;" parent="z1vdd2tGaupWYWKLR3hU-241" vertex="1">
          <mxGeometry width="30" height="30" as="geometry">
            <mxRectangle width="30" height="30" as="alternateBounds" />
          </mxGeometry>
        </mxCell>
        <mxCell id="z1vdd2tGaupWYWKLR3hU-243" value="Razão Social" style="shape=partialRectangle;connectable=0;fillColor=none;top=0;left=0;bottom=0;right=0;align=left;spacingLeft=6;overflow=hidden;whiteSpace=wrap;html=1;" parent="z1vdd2tGaupWYWKLR3hU-241" vertex="1">
          <mxGeometry x="30" width="150" height="30" as="geometry">
            <mxRectangle width="150" height="30" as="alternateBounds" />
          </mxGeometry>
        </mxCell>
        <mxCell id="z1vdd2tGaupWYWKLR3hU-165" value="Tipo de Usuario" style="shape=table;startSize=30;container=1;collapsible=1;childLayout=tableLayout;fixedRows=1;rowLines=0;fontStyle=1;align=center;resizeLast=1;html=1;" parent="1" vertex="1">
          <mxGeometry x="-70" y="630" width="180" height="90" as="geometry" />
        </mxCell>
        <mxCell id="z1vdd2tGaupWYWKLR3hU-166" value="" style="shape=tableRow;horizontal=0;startSize=0;swimlaneHead=0;swimlaneBody=0;fillColor=none;collapsible=0;dropTarget=0;points=[[0,0.5],[1,0.5]];portConstraint=eastwest;top=0;left=0;right=0;bottom=1;" parent="z1vdd2tGaupWYWKLR3hU-165" vertex="1">
          <mxGeometry y="30" width="180" height="30" as="geometry" />
        </mxCell>
        <mxCell id="z1vdd2tGaupWYWKLR3hU-167" value="PK" style="shape=partialRectangle;connectable=0;fillColor=none;top=0;left=0;bottom=0;right=0;fontStyle=1;overflow=hidden;whiteSpace=wrap;html=1;" parent="z1vdd2tGaupWYWKLR3hU-166" vertex="1">
          <mxGeometry width="30" height="30" as="geometry">
            <mxRectangle width="30" height="30" as="alternateBounds" />
          </mxGeometry>
        </mxCell>
        <mxCell id="z1vdd2tGaupWYWKLR3hU-168" value="IdTipodeUsuario" style="shape=partialRectangle;connectable=0;fillColor=none;top=0;left=0;bottom=0;right=0;align=left;spacingLeft=6;fontStyle=5;overflow=hidden;whiteSpace=wrap;html=1;" parent="z1vdd2tGaupWYWKLR3hU-166" vertex="1">
          <mxGeometry x="30" width="150" height="30" as="geometry">
            <mxRectangle width="150" height="30" as="alternateBounds" />
          </mxGeometry>
        </mxCell>
        <mxCell id="z1vdd2tGaupWYWKLR3hU-169" value="" style="shape=tableRow;horizontal=0;startSize=0;swimlaneHead=0;swimlaneBody=0;fillColor=none;collapsible=0;dropTarget=0;points=[[0,0.5],[1,0.5]];portConstraint=eastwest;top=0;left=0;right=0;bottom=0;" parent="z1vdd2tGaupWYWKLR3hU-165" vertex="1">
          <mxGeometry y="60" width="180" height="30" as="geometry" />
        </mxCell>
        <mxCell id="z1vdd2tGaupWYWKLR3hU-170" value="" style="shape=partialRectangle;connectable=0;fillColor=none;top=0;left=0;bottom=0;right=0;editable=1;overflow=hidden;whiteSpace=wrap;html=1;" parent="z1vdd2tGaupWYWKLR3hU-169" vertex="1">
          <mxGeometry width="30" height="30" as="geometry">
            <mxRectangle width="30" height="30" as="alternateBounds" />
          </mxGeometry>
        </mxCell>
        <mxCell id="z1vdd2tGaupWYWKLR3hU-171" value="NomeTipo" style="shape=partialRectangle;connectable=0;fillColor=none;top=0;left=0;bottom=0;right=0;align=left;spacingLeft=6;overflow=hidden;whiteSpace=wrap;html=1;" parent="z1vdd2tGaupWYWKLR3hU-169" vertex="1">
          <mxGeometry x="30" width="150" height="30" as="geometry">
            <mxRectangle width="150" height="30" as="alternateBounds" />
          </mxGeometry>
        </mxCell>
        <mxCell id="z1vdd2tGaupWYWKLR3hU-178" value="Usuario" style="shape=table;startSize=30;container=1;collapsible=1;childLayout=tableLayout;fixedRows=1;rowLines=0;fontStyle=1;align=center;resizeLast=1;html=1;" parent="1" vertex="1">
          <mxGeometry x="220" y="550" width="180" height="120" as="geometry" />
        </mxCell>
        <mxCell id="vYEWgBYMP0RqRQ5xHcF0-217" style="shape=tableRow;horizontal=0;startSize=0;swimlaneHead=0;swimlaneBody=0;fillColor=none;collapsible=0;dropTarget=0;points=[[0,0.5],[1,0.5]];portConstraint=eastwest;top=0;left=0;right=0;bottom=1;" parent="z1vdd2tGaupWYWKLR3hU-178" vertex="1">
          <mxGeometry y="30" width="180" height="30" as="geometry" />
        </mxCell>
        <mxCell id="vYEWgBYMP0RqRQ5xHcF0-218" value="PK" style="shape=partialRectangle;connectable=0;fillColor=none;top=0;left=0;bottom=0;right=0;fontStyle=1;overflow=hidden;whiteSpace=wrap;html=1;" parent="vYEWgBYMP0RqRQ5xHcF0-217" vertex="1">
          <mxGeometry width="30" height="30" as="geometry">
            <mxRectangle width="30" height="30" as="alternateBounds" />
          </mxGeometry>
        </mxCell>
        <mxCell id="vYEWgBYMP0RqRQ5xHcF0-219" value="IdUsuario" style="shape=partialRectangle;connectable=0;fillColor=none;top=0;left=0;bottom=0;right=0;align=left;spacingLeft=6;fontStyle=5;overflow=hidden;whiteSpace=wrap;html=1;" parent="vYEWgBYMP0RqRQ5xHcF0-217" vertex="1">
          <mxGeometry x="30" width="150" height="30" as="geometry">
            <mxRectangle width="150" height="30" as="alternateBounds" />
          </mxGeometry>
        </mxCell>
        <mxCell id="z1vdd2tGaupWYWKLR3hU-179" value="" style="shape=tableRow;horizontal=0;startSize=0;swimlaneHead=0;swimlaneBody=0;fillColor=none;collapsible=0;dropTarget=0;points=[[0,0.5],[1,0.5]];portConstraint=eastwest;top=0;left=0;right=0;bottom=1;" parent="z1vdd2tGaupWYWKLR3hU-178" vertex="1">
          <mxGeometry y="60" width="180" height="30" as="geometry" />
        </mxCell>
        <mxCell id="z1vdd2tGaupWYWKLR3hU-180" value="FK" style="shape=partialRectangle;connectable=0;fillColor=none;top=0;left=0;bottom=0;right=0;fontStyle=1;overflow=hidden;whiteSpace=wrap;html=1;" parent="z1vdd2tGaupWYWKLR3hU-179" vertex="1">
          <mxGeometry width="30" height="30" as="geometry">
            <mxRectangle width="30" height="30" as="alternateBounds" />
          </mxGeometry>
        </mxCell>
        <mxCell id="z1vdd2tGaupWYWKLR3hU-181" value="IdTipodeUsuario" style="shape=partialRectangle;connectable=0;fillColor=none;top=0;left=0;bottom=0;right=0;align=left;spacingLeft=6;fontStyle=5;overflow=hidden;whiteSpace=wrap;html=1;" parent="z1vdd2tGaupWYWKLR3hU-179" vertex="1">
          <mxGeometry x="30" width="150" height="30" as="geometry">
            <mxRectangle width="150" height="30" as="alternateBounds" />
          </mxGeometry>
        </mxCell>
        <mxCell id="z1vdd2tGaupWYWKLR3hU-182" value="" style="shape=tableRow;horizontal=0;startSize=0;swimlaneHead=0;swimlaneBody=0;fillColor=none;collapsible=0;dropTarget=0;points=[[0,0.5],[1,0.5]];portConstraint=eastwest;top=0;left=0;right=0;bottom=0;" parent="z1vdd2tGaupWYWKLR3hU-178" vertex="1">
          <mxGeometry y="90" width="180" height="30" as="geometry" />
        </mxCell>
        <mxCell id="z1vdd2tGaupWYWKLR3hU-183" value="" style="shape=partialRectangle;connectable=0;fillColor=none;top=0;left=0;bottom=0;right=0;editable=1;overflow=hidden;whiteSpace=wrap;html=1;" parent="z1vdd2tGaupWYWKLR3hU-182" vertex="1">
          <mxGeometry width="30" height="30" as="geometry">
            <mxRectangle width="30" height="30" as="alternateBounds" />
          </mxGeometry>
        </mxCell>
        <mxCell id="z1vdd2tGaupWYWKLR3hU-184" value="Tipo" style="shape=partialRectangle;connectable=0;fillColor=none;top=0;left=0;bottom=0;right=0;align=left;spacingLeft=6;overflow=hidden;whiteSpace=wrap;html=1;" parent="z1vdd2tGaupWYWKLR3hU-182" vertex="1">
          <mxGeometry x="30" width="150" height="30" as="geometry">
            <mxRectangle width="150" height="30" as="alternateBounds" />
          </mxGeometry>
        </mxCell>
        <mxCell id="z1vdd2tGaupWYWKLR3hU-210" value="Paciente" style="shape=table;startSize=30;container=1;collapsible=1;childLayout=tableLayout;fixedRows=1;rowLines=0;fontStyle=1;align=center;resizeLast=1;html=1;whiteSpace=wrap;" parent="1" vertex="1">
          <mxGeometry x="95" y="870" width="180" height="240" as="geometry" />
        </mxCell>
        <mxCell id="z1vdd2tGaupWYWKLR3hU-211" value="" style="shape=tableRow;horizontal=0;startSize=0;swimlaneHead=0;swimlaneBody=0;fillColor=none;collapsible=0;dropTarget=0;points=[[0,0.5],[1,0.5]];portConstraint=eastwest;top=0;left=0;right=0;bottom=0;html=1;" parent="z1vdd2tGaupWYWKLR3hU-210" vertex="1">
          <mxGeometry y="30" width="180" height="30" as="geometry" />
        </mxCell>
        <mxCell id="z1vdd2tGaupWYWKLR3hU-212" value="PK" style="shape=partialRectangle;connectable=0;fillColor=none;top=0;left=0;bottom=0;right=0;fontStyle=1;overflow=hidden;html=1;whiteSpace=wrap;" parent="z1vdd2tGaupWYWKLR3hU-211" vertex="1">
          <mxGeometry width="60" height="30" as="geometry">
            <mxRectangle width="60" height="30" as="alternateBounds" />
          </mxGeometry>
        </mxCell>
        <mxCell id="z1vdd2tGaupWYWKLR3hU-213" value="IdPaciente" style="shape=partialRectangle;connectable=0;fillColor=none;top=0;left=0;bottom=0;right=0;align=left;spacingLeft=6;fontStyle=5;overflow=hidden;html=1;whiteSpace=wrap;" parent="z1vdd2tGaupWYWKLR3hU-211" vertex="1">
          <mxGeometry x="60" width="120" height="30" as="geometry">
            <mxRectangle width="120" height="30" as="alternateBounds" />
          </mxGeometry>
        </mxCell>
        <mxCell id="z1vdd2tGaupWYWKLR3hU-214" value="" style="shape=tableRow;horizontal=0;startSize=0;swimlaneHead=0;swimlaneBody=0;fillColor=none;collapsible=0;dropTarget=0;points=[[0,0.5],[1,0.5]];portConstraint=eastwest;top=0;left=0;right=0;bottom=1;html=1;" parent="z1vdd2tGaupWYWKLR3hU-210" vertex="1">
          <mxGeometry y="60" width="180" height="30" as="geometry" />
        </mxCell>
        <mxCell id="z1vdd2tGaupWYWKLR3hU-215" value="FK2" style="shape=partialRectangle;connectable=0;fillColor=none;top=0;left=0;bottom=0;right=0;fontStyle=1;overflow=hidden;html=1;whiteSpace=wrap;" parent="z1vdd2tGaupWYWKLR3hU-214" vertex="1">
          <mxGeometry width="60" height="30" as="geometry">
            <mxRectangle width="60" height="30" as="alternateBounds" />
          </mxGeometry>
        </mxCell>
        <mxCell id="z1vdd2tGaupWYWKLR3hU-216" value="IdUsuario" style="shape=partialRectangle;connectable=0;fillColor=none;top=0;left=0;bottom=0;right=0;align=left;spacingLeft=6;fontStyle=5;overflow=hidden;html=1;whiteSpace=wrap;" parent="z1vdd2tGaupWYWKLR3hU-214" vertex="1">
          <mxGeometry x="60" width="120" height="30" as="geometry">
            <mxRectangle width="120" height="30" as="alternateBounds" />
          </mxGeometry>
        </mxCell>
        <mxCell id="z1vdd2tGaupWYWKLR3hU-217" value="" style="shape=tableRow;horizontal=0;startSize=0;swimlaneHead=0;swimlaneBody=0;fillColor=none;collapsible=0;dropTarget=0;points=[[0,0.5],[1,0.5]];portConstraint=eastwest;top=0;left=0;right=0;bottom=0;html=1;" parent="z1vdd2tGaupWYWKLR3hU-210" vertex="1">
          <mxGeometry y="90" width="180" height="30" as="geometry" />
        </mxCell>
        <mxCell id="z1vdd2tGaupWYWKLR3hU-218" value="" style="shape=partialRectangle;connectable=0;fillColor=none;top=0;left=0;bottom=0;right=0;editable=1;overflow=hidden;html=1;whiteSpace=wrap;" parent="z1vdd2tGaupWYWKLR3hU-217" vertex="1">
          <mxGeometry width="60" height="30" as="geometry">
            <mxRectangle width="60" height="30" as="alternateBounds" />
          </mxGeometry>
        </mxCell>
        <mxCell id="z1vdd2tGaupWYWKLR3hU-219" value="Nome" style="shape=partialRectangle;connectable=0;fillColor=none;top=0;left=0;bottom=0;right=0;align=left;spacingLeft=6;overflow=hidden;html=1;whiteSpace=wrap;" parent="z1vdd2tGaupWYWKLR3hU-217" vertex="1">
          <mxGeometry x="60" width="120" height="30" as="geometry">
            <mxRectangle width="120" height="30" as="alternateBounds" />
          </mxGeometry>
        </mxCell>
        <mxCell id="z1vdd2tGaupWYWKLR3hU-220" value="" style="shape=tableRow;horizontal=0;startSize=0;swimlaneHead=0;swimlaneBody=0;fillColor=none;collapsible=0;dropTarget=0;points=[[0,0.5],[1,0.5]];portConstraint=eastwest;top=0;left=0;right=0;bottom=0;html=1;" parent="z1vdd2tGaupWYWKLR3hU-210" vertex="1">
          <mxGeometry y="120" width="180" height="30" as="geometry" />
        </mxCell>
        <mxCell id="z1vdd2tGaupWYWKLR3hU-221" value="" style="shape=partialRectangle;connectable=0;fillColor=none;top=0;left=0;bottom=0;right=0;editable=1;overflow=hidden;html=1;whiteSpace=wrap;" parent="z1vdd2tGaupWYWKLR3hU-220" vertex="1">
          <mxGeometry width="60" height="30" as="geometry">
            <mxRectangle width="60" height="30" as="alternateBounds" />
          </mxGeometry>
        </mxCell>
        <mxCell id="z1vdd2tGaupWYWKLR3hU-222" value="Data de Nascimento" style="shape=partialRectangle;connectable=0;fillColor=none;top=0;left=0;bottom=0;right=0;align=left;spacingLeft=6;overflow=hidden;html=1;whiteSpace=wrap;" parent="z1vdd2tGaupWYWKLR3hU-220" vertex="1">
          <mxGeometry x="60" width="120" height="30" as="geometry">
            <mxRectangle width="120" height="30" as="alternateBounds" />
          </mxGeometry>
        </mxCell>
        <mxCell id="z1vdd2tGaupWYWKLR3hU-226" style="shape=tableRow;horizontal=0;startSize=0;swimlaneHead=0;swimlaneBody=0;fillColor=none;collapsible=0;dropTarget=0;points=[[0,0.5],[1,0.5]];portConstraint=eastwest;top=0;left=0;right=0;bottom=0;html=1;" parent="z1vdd2tGaupWYWKLR3hU-210" vertex="1">
          <mxGeometry y="150" width="180" height="30" as="geometry" />
        </mxCell>
        <mxCell id="z1vdd2tGaupWYWKLR3hU-227" style="shape=partialRectangle;connectable=0;fillColor=none;top=0;left=0;bottom=0;right=0;editable=1;overflow=hidden;html=1;whiteSpace=wrap;" parent="z1vdd2tGaupWYWKLR3hU-226" vertex="1">
          <mxGeometry width="60" height="30" as="geometry">
            <mxRectangle width="60" height="30" as="alternateBounds" />
          </mxGeometry>
        </mxCell>
        <mxCell id="z1vdd2tGaupWYWKLR3hU-228" value="sexo" style="shape=partialRectangle;connectable=0;fillColor=none;top=0;left=0;bottom=0;right=0;align=left;spacingLeft=6;overflow=hidden;html=1;whiteSpace=wrap;" parent="z1vdd2tGaupWYWKLR3hU-226" vertex="1">
          <mxGeometry x="60" width="120" height="30" as="geometry">
            <mxRectangle width="120" height="30" as="alternateBounds" />
          </mxGeometry>
        </mxCell>
        <mxCell id="z1vdd2tGaupWYWKLR3hU-229" style="shape=tableRow;horizontal=0;startSize=0;swimlaneHead=0;swimlaneBody=0;fillColor=none;collapsible=0;dropTarget=0;points=[[0,0.5],[1,0.5]];portConstraint=eastwest;top=0;left=0;right=0;bottom=0;html=1;" parent="z1vdd2tGaupWYWKLR3hU-210" vertex="1">
          <mxGeometry y="180" width="180" height="30" as="geometry" />
        </mxCell>
        <mxCell id="z1vdd2tGaupWYWKLR3hU-230" style="shape=partialRectangle;connectable=0;fillColor=none;top=0;left=0;bottom=0;right=0;editable=1;overflow=hidden;html=1;whiteSpace=wrap;" parent="z1vdd2tGaupWYWKLR3hU-229" vertex="1">
          <mxGeometry width="60" height="30" as="geometry">
            <mxRectangle width="60" height="30" as="alternateBounds" />
          </mxGeometry>
        </mxCell>
        <mxCell id="z1vdd2tGaupWYWKLR3hU-231" value="Telefone" style="shape=partialRectangle;connectable=0;fillColor=none;top=0;left=0;bottom=0;right=0;align=left;spacingLeft=6;overflow=hidden;html=1;whiteSpace=wrap;" parent="z1vdd2tGaupWYWKLR3hU-229" vertex="1">
          <mxGeometry x="60" width="120" height="30" as="geometry">
            <mxRectangle width="120" height="30" as="alternateBounds" />
          </mxGeometry>
        </mxCell>
        <mxCell id="z1vdd2tGaupWYWKLR3hU-238" style="shape=tableRow;horizontal=0;startSize=0;swimlaneHead=0;swimlaneBody=0;fillColor=none;collapsible=0;dropTarget=0;points=[[0,0.5],[1,0.5]];portConstraint=eastwest;top=0;left=0;right=0;bottom=0;html=1;" parent="z1vdd2tGaupWYWKLR3hU-210" vertex="1">
          <mxGeometry y="210" width="180" height="30" as="geometry" />
        </mxCell>
        <mxCell id="z1vdd2tGaupWYWKLR3hU-239" style="shape=partialRectangle;connectable=0;fillColor=none;top=0;left=0;bottom=0;right=0;editable=1;overflow=hidden;html=1;whiteSpace=wrap;" parent="z1vdd2tGaupWYWKLR3hU-238" vertex="1">
          <mxGeometry width="60" height="30" as="geometry">
            <mxRectangle width="60" height="30" as="alternateBounds" />
          </mxGeometry>
        </mxCell>
        <mxCell id="z1vdd2tGaupWYWKLR3hU-240" value="Email" style="shape=partialRectangle;connectable=0;fillColor=none;top=0;left=0;bottom=0;right=0;align=left;spacingLeft=6;overflow=hidden;html=1;whiteSpace=wrap;" parent="z1vdd2tGaupWYWKLR3hU-238" vertex="1">
          <mxGeometry x="60" width="120" height="30" as="geometry">
            <mxRectangle width="120" height="30" as="alternateBounds" />
          </mxGeometry>
        </mxCell>
        <mxCell id="vYEWgBYMP0RqRQ5xHcF0-19" style="edgeStyle=orthogonalEdgeStyle;rounded=0;orthogonalLoop=1;jettySize=auto;html=1;entryX=0.5;entryY=0;entryDx=0;entryDy=0;endArrow=none;endFill=0;" parent="1" source="z1vdd2tGaupWYWKLR3hU-96" target="z1vdd2tGaupWYWKLR3hU-6" edge="1">
          <mxGeometry relative="1" as="geometry" />
        </mxCell>
        <mxCell id="z1vdd2tGaupWYWKLR3hU-96" value="Realiza" style="rhombus;whiteSpace=wrap;html=1;fillColor=#ffe6cc;strokeColor=#d79b00;" parent="1" vertex="1">
          <mxGeometry x="495" y="-30" width="60" height="50" as="geometry" />
        </mxCell>
        <mxCell id="vYEWgBYMP0RqRQ5xHcF0-65" style="edgeStyle=orthogonalEdgeStyle;rounded=0;orthogonalLoop=1;jettySize=auto;html=1;entryX=0.25;entryY=1;entryDx=0;entryDy=0;endArrow=none;endFill=0;" parent="1" source="vYEWgBYMP0RqRQ5xHcF0-10" target="z1vdd2tGaupWYWKLR3hU-4" edge="1">
          <mxGeometry relative="1" as="geometry" />
        </mxCell>
        <mxCell id="vYEWgBYMP0RqRQ5xHcF0-10" value="data de nascimento" style="ellipse;whiteSpace=wrap;html=1;" parent="1" vertex="1">
          <mxGeometry x="455" y="330" width="80" height="50" as="geometry" />
        </mxCell>
        <mxCell id="vYEWgBYMP0RqRQ5xHcF0-29" style="edgeStyle=orthogonalEdgeStyle;rounded=0;orthogonalLoop=1;jettySize=auto;html=1;entryX=0;entryY=0.5;entryDx=0;entryDy=0;endArrow=none;endFill=0;" parent="1" source="vYEWgBYMP0RqRQ5xHcF0-27" target="z1vdd2tGaupWYWKLR3hU-103" edge="1">
          <mxGeometry relative="1" as="geometry" />
        </mxCell>
        <mxCell id="vYEWgBYMP0RqRQ5xHcF0-27" value="acessa" style="rhombus;whiteSpace=wrap;html=1;fillColor=#ffe6cc;strokeColor=#d79b00;" parent="1" vertex="1">
          <mxGeometry x="710" y="-140" width="80" height="60" as="geometry" />
        </mxCell>
        <mxCell id="vYEWgBYMP0RqRQ5xHcF0-33" style="edgeStyle=orthogonalEdgeStyle;rounded=0;orthogonalLoop=1;jettySize=auto;html=1;entryX=0.5;entryY=0;entryDx=0;entryDy=0;endArrow=none;endFill=0;" parent="1" source="vYEWgBYMP0RqRQ5xHcF0-31" target="z1vdd2tGaupWYWKLR3hU-85" edge="1">
          <mxGeometry relative="1" as="geometry" />
        </mxCell>
        <mxCell id="vYEWgBYMP0RqRQ5xHcF0-232" style="edgeStyle=orthogonalEdgeStyle;rounded=0;orthogonalLoop=1;jettySize=auto;html=1;endArrow=none;endFill=0;" parent="1" source="vYEWgBYMP0RqRQ5xHcF0-31" target="z1vdd2tGaupWYWKLR3hU-103" edge="1">
          <mxGeometry relative="1" as="geometry" />
        </mxCell>
        <mxCell id="vYEWgBYMP0RqRQ5xHcF0-31" value="possui" style="rhombus;whiteSpace=wrap;html=1;fillColor=#ffe6cc;strokeColor=#d79b00;" parent="1" vertex="1">
          <mxGeometry x="805" y="90" width="80" height="50" as="geometry" />
        </mxCell>
        <mxCell id="vYEWgBYMP0RqRQ5xHcF0-57" style="edgeStyle=orthogonalEdgeStyle;rounded=0;orthogonalLoop=1;jettySize=auto;html=1;entryX=0.75;entryY=0;entryDx=0;entryDy=0;endArrow=none;endFill=0;" parent="1" source="vYEWgBYMP0RqRQ5xHcF0-40" target="z1vdd2tGaupWYWKLR3hU-5" edge="1">
          <mxGeometry relative="1" as="geometry" />
        </mxCell>
        <mxCell id="vYEWgBYMP0RqRQ5xHcF0-40" value="Nome" style="ellipse;whiteSpace=wrap;html=1;" parent="1" vertex="1">
          <mxGeometry x="590" y="-195" width="50" height="30" as="geometry" />
        </mxCell>
        <mxCell id="vYEWgBYMP0RqRQ5xHcF0-54" style="edgeStyle=orthogonalEdgeStyle;rounded=0;orthogonalLoop=1;jettySize=auto;html=1;entryX=0.25;entryY=0;entryDx=0;entryDy=0;endArrow=none;endFill=0;" parent="1" source="vYEWgBYMP0RqRQ5xHcF0-41" target="z1vdd2tGaupWYWKLR3hU-5" edge="1">
          <mxGeometry relative="1" as="geometry" />
        </mxCell>
        <mxCell id="vYEWgBYMP0RqRQ5xHcF0-41" value="CMR" style="ellipse;whiteSpace=wrap;html=1;" parent="1" vertex="1">
          <mxGeometry x="470" y="-180" width="50" height="30" as="geometry" />
        </mxCell>
        <mxCell id="vYEWgBYMP0RqRQ5xHcF0-52" style="edgeStyle=orthogonalEdgeStyle;rounded=0;orthogonalLoop=1;jettySize=auto;html=1;entryX=0;entryY=0.5;entryDx=0;entryDy=0;endArrow=none;endFill=0;" parent="1" source="vYEWgBYMP0RqRQ5xHcF0-42" target="z1vdd2tGaupWYWKLR3hU-72" edge="1">
          <mxGeometry relative="1" as="geometry">
            <Array as="points">
              <mxPoint x="410" y="-405" />
            </Array>
          </mxGeometry>
        </mxCell>
        <mxCell id="vYEWgBYMP0RqRQ5xHcF0-42" value="Razão social" style="ellipse;whiteSpace=wrap;html=1;" parent="1" vertex="1">
          <mxGeometry x="365" y="-480" width="80" height="40" as="geometry" />
        </mxCell>
        <mxCell id="vYEWgBYMP0RqRQ5xHcF0-50" style="edgeStyle=orthogonalEdgeStyle;rounded=0;orthogonalLoop=1;jettySize=auto;html=1;entryX=0.5;entryY=0;entryDx=0;entryDy=0;endArrow=none;endFill=0;" parent="1" source="vYEWgBYMP0RqRQ5xHcF0-43" target="z1vdd2tGaupWYWKLR3hU-72" edge="1">
          <mxGeometry relative="1" as="geometry">
            <Array as="points">
              <mxPoint x="572" y="-490" />
              <mxPoint x="525" y="-490" />
            </Array>
          </mxGeometry>
        </mxCell>
        <mxCell id="vYEWgBYMP0RqRQ5xHcF0-43" value="cnpj" style="ellipse;whiteSpace=wrap;html=1;" parent="1" vertex="1">
          <mxGeometry x="544" y="-540" width="56" height="30" as="geometry" />
        </mxCell>
        <mxCell id="vYEWgBYMP0RqRQ5xHcF0-51" style="edgeStyle=orthogonalEdgeStyle;rounded=0;orthogonalLoop=1;jettySize=auto;html=1;endArrow=none;endFill=0;" parent="1" source="vYEWgBYMP0RqRQ5xHcF0-44" edge="1">
          <mxGeometry relative="1" as="geometry">
            <mxPoint x="490" y="-430" as="targetPoint" />
            <Array as="points">
              <mxPoint x="490" y="-430" />
            </Array>
          </mxGeometry>
        </mxCell>
        <mxCell id="vYEWgBYMP0RqRQ5xHcF0-44" value="horario de atendimento" style="ellipse;whiteSpace=wrap;html=1;" parent="1" vertex="1">
          <mxGeometry x="450" y="-550" width="80" height="50" as="geometry" />
        </mxCell>
        <mxCell id="vYEWgBYMP0RqRQ5xHcF0-94" style="edgeStyle=orthogonalEdgeStyle;rounded=0;orthogonalLoop=1;jettySize=auto;html=1;entryX=0.75;entryY=1;entryDx=0;entryDy=0;endArrow=none;endFill=0;" parent="1" source="vYEWgBYMP0RqRQ5xHcF0-59" target="z1vdd2tGaupWYWKLR3hU-4" edge="1">
          <mxGeometry relative="1" as="geometry" />
        </mxCell>
        <mxCell id="vYEWgBYMP0RqRQ5xHcF0-59" value="Telefone" style="ellipse;whiteSpace=wrap;html=1;" parent="1" vertex="1">
          <mxGeometry x="540" y="370" width="70" height="40" as="geometry" />
        </mxCell>
        <mxCell id="vYEWgBYMP0RqRQ5xHcF0-68" style="edgeStyle=orthogonalEdgeStyle;rounded=0;orthogonalLoop=1;jettySize=auto;html=1;entryX=0;entryY=0.75;entryDx=0;entryDy=0;endArrow=none;endFill=0;" parent="1" source="vYEWgBYMP0RqRQ5xHcF0-60" target="z1vdd2tGaupWYWKLR3hU-4" edge="1">
          <mxGeometry relative="1" as="geometry" />
        </mxCell>
        <mxCell id="vYEWgBYMP0RqRQ5xHcF0-60" value="Email" style="ellipse;whiteSpace=wrap;html=1;" parent="1" vertex="1">
          <mxGeometry x="357" y="310" width="70" height="40" as="geometry" />
        </mxCell>
        <mxCell id="vYEWgBYMP0RqRQ5xHcF0-71" value="1" style="text;html=1;align=center;verticalAlign=middle;resizable=0;points=[];autosize=1;strokeColor=none;fillColor=none;" parent="1" vertex="1">
          <mxGeometry x="575" y="-382" width="30" height="30" as="geometry" />
        </mxCell>
        <mxCell id="vYEWgBYMP0RqRQ5xHcF0-72" value="n" style="text;html=1;align=center;verticalAlign=middle;resizable=0;points=[];autosize=1;strokeColor=none;fillColor=none;" parent="1" vertex="1">
          <mxGeometry x="565" y="-162" width="30" height="30" as="geometry" />
        </mxCell>
        <mxCell id="vYEWgBYMP0RqRQ5xHcF0-73" value="1.n" style="text;html=1;align=center;verticalAlign=middle;resizable=0;points=[];autosize=1;strokeColor=none;fillColor=none;" parent="1" vertex="1">
          <mxGeometry x="570" y="-300" width="40" height="30" as="geometry" />
        </mxCell>
        <mxCell id="vYEWgBYMP0RqRQ5xHcF0-74" value="1" style="text;html=1;align=center;verticalAlign=middle;resizable=0;points=[];autosize=1;strokeColor=none;fillColor=none;" parent="1" vertex="1">
          <mxGeometry x="35" y="-352" width="30" height="30" as="geometry" />
        </mxCell>
        <mxCell id="vYEWgBYMP0RqRQ5xHcF0-75" value="n" style="text;html=1;align=center;verticalAlign=middle;resizable=0;points=[];autosize=1;strokeColor=none;fillColor=none;" parent="1" vertex="1">
          <mxGeometry x="30" y="-150" width="30" height="30" as="geometry" />
        </mxCell>
        <mxCell id="vYEWgBYMP0RqRQ5xHcF0-76" value="1.n" style="text;html=1;align=center;verticalAlign=middle;resizable=0;points=[];autosize=1;strokeColor=none;fillColor=none;" parent="1" vertex="1">
          <mxGeometry x="10" y="-260" width="40" height="30" as="geometry" />
        </mxCell>
        <mxCell id="vYEWgBYMP0RqRQ5xHcF0-77" value="1" style="text;html=1;align=center;verticalAlign=middle;resizable=0;points=[];autosize=1;strokeColor=none;fillColor=none;" parent="1" vertex="1">
          <mxGeometry x="135" y="-52" width="30" height="30" as="geometry" />
        </mxCell>
        <mxCell id="vYEWgBYMP0RqRQ5xHcF0-79" value="n" style="text;html=1;align=center;verticalAlign=middle;resizable=0;points=[];autosize=1;strokeColor=none;fillColor=none;" parent="1" vertex="1">
          <mxGeometry x="415" y="250" width="30" height="30" as="geometry" />
        </mxCell>
        <mxCell id="vYEWgBYMP0RqRQ5xHcF0-80" value="1.n" style="text;html=1;align=center;verticalAlign=middle;resizable=0;points=[];autosize=1;strokeColor=none;fillColor=none;" parent="1" vertex="1">
          <mxGeometry x="165" y="220" width="40" height="30" as="geometry" />
        </mxCell>
        <mxCell id="vYEWgBYMP0RqRQ5xHcF0-81" value="1" style="text;html=1;align=center;verticalAlign=middle;resizable=0;points=[];autosize=1;strokeColor=none;fillColor=none;" parent="1" vertex="1">
          <mxGeometry x="145" y="-170" width="30" height="30" as="geometry" />
        </mxCell>
        <mxCell id="vYEWgBYMP0RqRQ5xHcF0-82" value="n" style="text;html=1;align=center;verticalAlign=middle;resizable=0;points=[];autosize=1;strokeColor=none;fillColor=none;" parent="1" vertex="1">
          <mxGeometry x="404" y="-162" width="30" height="30" as="geometry" />
        </mxCell>
        <mxCell id="vYEWgBYMP0RqRQ5xHcF0-83" value="1" style="text;html=1;align=center;verticalAlign=middle;resizable=0;points=[];autosize=1;strokeColor=none;fillColor=none;" parent="1" vertex="1">
          <mxGeometry x="460" y="-75" width="30" height="30" as="geometry" />
        </mxCell>
        <mxCell id="vYEWgBYMP0RqRQ5xHcF0-84" value="n" style="text;html=1;align=center;verticalAlign=middle;resizable=0;points=[];autosize=1;strokeColor=none;fillColor=none;" parent="1" vertex="1">
          <mxGeometry x="960" y="-85" width="30" height="30" as="geometry" />
        </mxCell>
        <mxCell id="vYEWgBYMP0RqRQ5xHcF0-85" value="1.n" style="text;html=1;align=center;verticalAlign=middle;resizable=0;points=[];autosize=1;strokeColor=none;fillColor=none;" parent="1" vertex="1">
          <mxGeometry x="730" y="-75" width="40" height="30" as="geometry" />
        </mxCell>
        <mxCell id="vYEWgBYMP0RqRQ5xHcF0-86" value="1" style="text;html=1;align=center;verticalAlign=middle;resizable=0;points=[];autosize=1;strokeColor=none;fillColor=none;" parent="1" vertex="1">
          <mxGeometry x="445" y="40" width="30" height="30" as="geometry" />
        </mxCell>
        <mxCell id="vYEWgBYMP0RqRQ5xHcF0-87" value="1.n" style="text;html=1;align=center;verticalAlign=middle;resizable=0;points=[];autosize=1;strokeColor=none;fillColor=none;" parent="1" vertex="1">
          <mxGeometry x="445" y="-22" width="40" height="30" as="geometry" />
        </mxCell>
        <mxCell id="vYEWgBYMP0RqRQ5xHcF0-88" value="n" style="text;html=1;align=center;verticalAlign=middle;resizable=0;points=[];autosize=1;strokeColor=none;fillColor=none;" parent="1" vertex="1">
          <mxGeometry x="555" y="130" width="30" height="30" as="geometry" />
        </mxCell>
        <mxCell id="vYEWgBYMP0RqRQ5xHcF0-89" value="1" style="text;html=1;align=center;verticalAlign=middle;resizable=0;points=[];autosize=1;strokeColor=none;fillColor=none;" parent="1" vertex="1">
          <mxGeometry x="550" y="228" width="30" height="30" as="geometry" />
        </mxCell>
        <mxCell id="vYEWgBYMP0RqRQ5xHcF0-90" value="n.1" style="text;html=1;align=center;verticalAlign=middle;resizable=0;points=[];autosize=1;strokeColor=none;fillColor=none;" parent="1" vertex="1">
          <mxGeometry x="570" y="180" width="40" height="30" as="geometry" />
        </mxCell>
        <mxCell id="vYEWgBYMP0RqRQ5xHcF0-96" value="1" style="text;html=1;align=center;verticalAlign=middle;resizable=0;points=[];autosize=1;strokeColor=none;fillColor=none;" parent="1" vertex="1">
          <mxGeometry x="590" y="80" width="30" height="30" as="geometry" />
        </mxCell>
        <mxCell id="vYEWgBYMP0RqRQ5xHcF0-97" value="1" style="text;html=1;align=center;verticalAlign=middle;resizable=0;points=[];autosize=1;strokeColor=none;fillColor=none;" parent="1" vertex="1">
          <mxGeometry x="890" y="230" width="30" height="30" as="geometry" />
        </mxCell>
        <mxCell id="vYEWgBYMP0RqRQ5xHcF0-98" value="&lt;b&gt;1.1&lt;/b&gt;" style="text;html=1;align=center;verticalAlign=middle;resizable=0;points=[];autosize=1;strokeColor=none;fillColor=none;" parent="1" vertex="1">
          <mxGeometry x="860" y="170" width="40" height="30" as="geometry" />
        </mxCell>
        <mxCell id="vYEWgBYMP0RqRQ5xHcF0-99" value="1.n" style="text;html=1;align=center;verticalAlign=middle;resizable=0;points=[];autosize=1;strokeColor=none;fillColor=none;" parent="1" vertex="1">
          <mxGeometry x="260" y="-170" width="40" height="30" as="geometry" />
        </mxCell>
        <mxCell id="vYEWgBYMP0RqRQ5xHcF0-100" value="1" style="text;html=1;align=center;verticalAlign=middle;resizable=0;points=[];autosize=1;strokeColor=none;fillColor=none;" parent="1" vertex="1">
          <mxGeometry x="565" y="-75" width="30" height="30" as="geometry" />
        </mxCell>
        <mxCell id="vYEWgBYMP0RqRQ5xHcF0-101" value="n" style="text;html=1;align=center;verticalAlign=middle;resizable=0;points=[];autosize=1;strokeColor=none;fillColor=none;" parent="1" vertex="1">
          <mxGeometry x="790" y="228" width="30" height="30" as="geometry" />
        </mxCell>
        <mxCell id="vYEWgBYMP0RqRQ5xHcF0-102" value="&lt;b&gt;1.n&lt;/b&gt;" style="text;html=1;align=center;verticalAlign=middle;resizable=0;points=[];autosize=1;strokeColor=none;fillColor=none;" parent="1" vertex="1">
          <mxGeometry x="685" y="230" width="40" height="30" as="geometry" />
        </mxCell>
        <mxCell id="vYEWgBYMP0RqRQ5xHcF0-108" style="edgeStyle=orthogonalEdgeStyle;rounded=0;orthogonalLoop=1;jettySize=auto;html=1;endArrow=none;endFill=0;entryX=0.619;entryY=-0.001;entryDx=0;entryDy=0;entryPerimeter=0;" parent="1" source="vYEWgBYMP0RqRQ5xHcF0-103" target="z1vdd2tGaupWYWKLR3hU-103" edge="1">
          <mxGeometry relative="1" as="geometry">
            <mxPoint x="1060" y="-130" as="targetPoint" />
          </mxGeometry>
        </mxCell>
        <mxCell id="vYEWgBYMP0RqRQ5xHcF0-103" value="numero" style="ellipse;whiteSpace=wrap;html=1;" parent="1" vertex="1">
          <mxGeometry x="1120" y="-180" width="70" height="40" as="geometry" />
        </mxCell>
        <mxCell id="vYEWgBYMP0RqRQ5xHcF0-107" style="edgeStyle=orthogonalEdgeStyle;rounded=0;orthogonalLoop=1;jettySize=auto;html=1;endArrow=none;endFill=0;" parent="1" source="vYEWgBYMP0RqRQ5xHcF0-104" target="z1vdd2tGaupWYWKLR3hU-103" edge="1">
          <mxGeometry relative="1" as="geometry">
            <mxPoint x="1099.9999999999995" y="-105" as="targetPoint" />
          </mxGeometry>
        </mxCell>
        <mxCell id="vYEWgBYMP0RqRQ5xHcF0-104" value="data de abertura" style="ellipse;whiteSpace=wrap;html=1;" parent="1" vertex="1">
          <mxGeometry x="1150" y="-130" width="70" height="40" as="geometry" />
        </mxCell>
        <mxCell id="vYEWgBYMP0RqRQ5xHcF0-106" style="edgeStyle=orthogonalEdgeStyle;rounded=0;orthogonalLoop=1;jettySize=auto;html=1;entryX=0.653;entryY=1.006;entryDx=0;entryDy=0;endArrow=none;endFill=0;entryPerimeter=0;" parent="1" source="vYEWgBYMP0RqRQ5xHcF0-105" target="z1vdd2tGaupWYWKLR3hU-103" edge="1">
          <mxGeometry relative="1" as="geometry">
            <Array as="points">
              <mxPoint x="1060" y="-50" />
              <mxPoint x="1060" y="-85" />
            </Array>
          </mxGeometry>
        </mxCell>
        <mxCell id="vYEWgBYMP0RqRQ5xHcF0-105" value="Descrição" style="ellipse;whiteSpace=wrap;html=1;" parent="1" vertex="1">
          <mxGeometry x="1140" y="-70" width="70" height="40" as="geometry" />
        </mxCell>
        <mxCell id="vYEWgBYMP0RqRQ5xHcF0-109" value="Medico" style="shape=table;startSize=30;container=1;collapsible=1;childLayout=tableLayout;fixedRows=1;rowLines=0;fontStyle=1;align=center;resizeLast=1;html=1;whiteSpace=wrap;" parent="1" vertex="1">
          <mxGeometry x="610" y="520" width="180" height="180.00000000000045" as="geometry" />
        </mxCell>
        <mxCell id="vYEWgBYMP0RqRQ5xHcF0-131" style="shape=tableRow;horizontal=0;startSize=0;swimlaneHead=0;swimlaneBody=0;fillColor=none;collapsible=0;dropTarget=0;points=[[0,0.5],[1,0.5]];portConstraint=eastwest;top=0;left=0;right=0;bottom=0;html=1;" parent="vYEWgBYMP0RqRQ5xHcF0-109" vertex="1">
          <mxGeometry y="30" width="180" height="30" as="geometry" />
        </mxCell>
        <mxCell id="vYEWgBYMP0RqRQ5xHcF0-132" value="&lt;br style=&quot;border-color: var(--border-color);&quot;&gt;PK" style="shape=partialRectangle;connectable=0;fillColor=none;top=0;left=0;bottom=0;right=0;fontStyle=1;overflow=hidden;html=1;whiteSpace=wrap;" parent="vYEWgBYMP0RqRQ5xHcF0-131" vertex="1">
          <mxGeometry width="60" height="30" as="geometry">
            <mxRectangle width="60" height="30" as="alternateBounds" />
          </mxGeometry>
        </mxCell>
        <mxCell id="vYEWgBYMP0RqRQ5xHcF0-133" value="IdMedico" style="shape=partialRectangle;connectable=0;fillColor=none;top=0;left=0;bottom=0;right=0;align=left;spacingLeft=6;fontStyle=5;overflow=hidden;html=1;whiteSpace=wrap;" parent="vYEWgBYMP0RqRQ5xHcF0-131" vertex="1">
          <mxGeometry x="60" width="120" height="30" as="geometry">
            <mxRectangle width="120" height="30" as="alternateBounds" />
          </mxGeometry>
        </mxCell>
        <mxCell id="vYEWgBYMP0RqRQ5xHcF0-110" value="" style="shape=tableRow;horizontal=0;startSize=0;swimlaneHead=0;swimlaneBody=0;fillColor=none;collapsible=0;dropTarget=0;points=[[0,0.5],[1,0.5]];portConstraint=eastwest;top=0;left=0;right=0;bottom=0;html=1;" parent="vYEWgBYMP0RqRQ5xHcF0-109" vertex="1">
          <mxGeometry y="60" width="180" height="30" as="geometry" />
        </mxCell>
        <mxCell id="vYEWgBYMP0RqRQ5xHcF0-111" value="FK" style="shape=partialRectangle;connectable=0;fillColor=none;top=0;left=0;bottom=0;right=0;fontStyle=1;overflow=hidden;html=1;whiteSpace=wrap;" parent="vYEWgBYMP0RqRQ5xHcF0-110" vertex="1">
          <mxGeometry width="60" height="30" as="geometry">
            <mxRectangle width="60" height="30" as="alternateBounds" />
          </mxGeometry>
        </mxCell>
        <mxCell id="vYEWgBYMP0RqRQ5xHcF0-112" value="IdUsuario" style="shape=partialRectangle;connectable=0;fillColor=none;top=0;left=0;bottom=0;right=0;align=left;spacingLeft=6;fontStyle=5;overflow=hidden;html=1;whiteSpace=wrap;" parent="vYEWgBYMP0RqRQ5xHcF0-110" vertex="1">
          <mxGeometry x="60" width="120" height="30" as="geometry">
            <mxRectangle width="120" height="30" as="alternateBounds" />
          </mxGeometry>
        </mxCell>
        <mxCell id="vYEWgBYMP0RqRQ5xHcF0-113" value="" style="shape=tableRow;horizontal=0;startSize=0;swimlaneHead=0;swimlaneBody=0;fillColor=none;collapsible=0;dropTarget=0;points=[[0,0.5],[1,0.5]];portConstraint=eastwest;top=0;left=0;right=0;bottom=1;html=1;" parent="vYEWgBYMP0RqRQ5xHcF0-109" vertex="1">
          <mxGeometry y="90" width="180" height="30" as="geometry" />
        </mxCell>
        <mxCell id="vYEWgBYMP0RqRQ5xHcF0-114" value="FK2" style="shape=partialRectangle;connectable=0;fillColor=none;top=0;left=0;bottom=0;right=0;fontStyle=1;overflow=hidden;html=1;whiteSpace=wrap;" parent="vYEWgBYMP0RqRQ5xHcF0-113" vertex="1">
          <mxGeometry width="60" height="30" as="geometry">
            <mxRectangle width="60" height="30" as="alternateBounds" />
          </mxGeometry>
        </mxCell>
        <mxCell id="vYEWgBYMP0RqRQ5xHcF0-115" value="IdClinica" style="shape=partialRectangle;connectable=0;fillColor=none;top=0;left=0;bottom=0;right=0;align=left;spacingLeft=6;fontStyle=5;overflow=hidden;html=1;whiteSpace=wrap;" parent="vYEWgBYMP0RqRQ5xHcF0-113" vertex="1">
          <mxGeometry x="60" width="120" height="30" as="geometry">
            <mxRectangle width="120" height="30" as="alternateBounds" />
          </mxGeometry>
        </mxCell>
        <mxCell id="vYEWgBYMP0RqRQ5xHcF0-116" value="" style="shape=tableRow;horizontal=0;startSize=0;swimlaneHead=0;swimlaneBody=0;fillColor=none;collapsible=0;dropTarget=0;points=[[0,0.5],[1,0.5]];portConstraint=eastwest;top=0;left=0;right=0;bottom=0;html=1;" parent="vYEWgBYMP0RqRQ5xHcF0-109" vertex="1">
          <mxGeometry y="120" width="180" height="30" as="geometry" />
        </mxCell>
        <mxCell id="vYEWgBYMP0RqRQ5xHcF0-117" value="" style="shape=partialRectangle;connectable=0;fillColor=none;top=0;left=0;bottom=0;right=0;editable=1;overflow=hidden;html=1;whiteSpace=wrap;" parent="vYEWgBYMP0RqRQ5xHcF0-116" vertex="1">
          <mxGeometry width="60" height="30" as="geometry">
            <mxRectangle width="60" height="30" as="alternateBounds" />
          </mxGeometry>
        </mxCell>
        <mxCell id="vYEWgBYMP0RqRQ5xHcF0-118" value="Nome" style="shape=partialRectangle;connectable=0;fillColor=none;top=0;left=0;bottom=0;right=0;align=left;spacingLeft=6;overflow=hidden;html=1;whiteSpace=wrap;" parent="vYEWgBYMP0RqRQ5xHcF0-116" vertex="1">
          <mxGeometry x="60" width="120" height="30" as="geometry">
            <mxRectangle width="120" height="30" as="alternateBounds" />
          </mxGeometry>
        </mxCell>
        <mxCell id="vYEWgBYMP0RqRQ5xHcF0-119" value="" style="shape=tableRow;horizontal=0;startSize=0;swimlaneHead=0;swimlaneBody=0;fillColor=none;collapsible=0;dropTarget=0;points=[[0,0.5],[1,0.5]];portConstraint=eastwest;top=0;left=0;right=0;bottom=0;html=1;" parent="vYEWgBYMP0RqRQ5xHcF0-109" vertex="1">
          <mxGeometry y="150" width="180" height="30" as="geometry" />
        </mxCell>
        <mxCell id="vYEWgBYMP0RqRQ5xHcF0-120" value="" style="shape=partialRectangle;connectable=0;fillColor=none;top=0;left=0;bottom=0;right=0;editable=1;overflow=hidden;html=1;whiteSpace=wrap;" parent="vYEWgBYMP0RqRQ5xHcF0-119" vertex="1">
          <mxGeometry width="60" height="30" as="geometry">
            <mxRectangle width="60" height="30" as="alternateBounds" />
          </mxGeometry>
        </mxCell>
        <mxCell id="vYEWgBYMP0RqRQ5xHcF0-121" value="CMR" style="shape=partialRectangle;connectable=0;fillColor=none;top=0;left=0;bottom=0;right=0;align=left;spacingLeft=6;overflow=hidden;html=1;whiteSpace=wrap;" parent="vYEWgBYMP0RqRQ5xHcF0-119" vertex="1">
          <mxGeometry x="60" width="120" height="30" as="geometry">
            <mxRectangle width="120" height="30" as="alternateBounds" />
          </mxGeometry>
        </mxCell>
        <mxCell id="vYEWgBYMP0RqRQ5xHcF0-137" value="Consulta" style="shape=table;startSize=50;container=1;collapsible=1;childLayout=tableLayout;fixedRows=1;rowLines=0;fontStyle=1;align=center;resizeLast=1;html=1;whiteSpace=wrap;" parent="1" vertex="1">
          <mxGeometry x="705" y="1010" width="180" height="200" as="geometry" />
        </mxCell>
        <mxCell id="vYEWgBYMP0RqRQ5xHcF0-227" style="shape=tableRow;horizontal=0;startSize=0;swimlaneHead=0;swimlaneBody=0;fillColor=none;collapsible=0;dropTarget=0;points=[[0,0.5],[1,0.5]];portConstraint=eastwest;top=0;left=0;right=0;bottom=0;html=1;" parent="vYEWgBYMP0RqRQ5xHcF0-137" vertex="1">
          <mxGeometry y="50" width="180" height="30" as="geometry" />
        </mxCell>
        <mxCell id="vYEWgBYMP0RqRQ5xHcF0-228" value="pk" style="shape=partialRectangle;connectable=0;fillColor=none;top=0;left=0;bottom=0;right=0;fontStyle=1;overflow=hidden;html=1;whiteSpace=wrap;" parent="vYEWgBYMP0RqRQ5xHcF0-227" vertex="1">
          <mxGeometry width="60" height="30" as="geometry">
            <mxRectangle width="60" height="30" as="alternateBounds" />
          </mxGeometry>
        </mxCell>
        <mxCell id="vYEWgBYMP0RqRQ5xHcF0-229" value="IdConsulta" style="shape=partialRectangle;connectable=0;fillColor=none;top=0;left=0;bottom=0;right=0;align=left;spacingLeft=6;fontStyle=5;overflow=hidden;html=1;whiteSpace=wrap;" parent="vYEWgBYMP0RqRQ5xHcF0-227" vertex="1">
          <mxGeometry x="60" width="120" height="30" as="geometry">
            <mxRectangle width="120" height="30" as="alternateBounds" />
          </mxGeometry>
        </mxCell>
        <mxCell id="vYEWgBYMP0RqRQ5xHcF0-138" style="shape=tableRow;horizontal=0;startSize=0;swimlaneHead=0;swimlaneBody=0;fillColor=none;collapsible=0;dropTarget=0;points=[[0,0.5],[1,0.5]];portConstraint=eastwest;top=0;left=0;right=0;bottom=0;html=1;" parent="vYEWgBYMP0RqRQ5xHcF0-137" vertex="1">
          <mxGeometry y="80" width="180" height="30" as="geometry" />
        </mxCell>
        <mxCell id="vYEWgBYMP0RqRQ5xHcF0-139" value="FK" style="shape=partialRectangle;connectable=0;fillColor=none;top=0;left=0;bottom=0;right=0;fontStyle=1;overflow=hidden;html=1;whiteSpace=wrap;" parent="vYEWgBYMP0RqRQ5xHcF0-138" vertex="1">
          <mxGeometry width="60" height="30" as="geometry">
            <mxRectangle width="60" height="30" as="alternateBounds" />
          </mxGeometry>
        </mxCell>
        <mxCell id="vYEWgBYMP0RqRQ5xHcF0-140" value="IdMedico" style="shape=partialRectangle;connectable=0;fillColor=none;top=0;left=0;bottom=0;right=0;align=left;spacingLeft=6;fontStyle=5;overflow=hidden;html=1;whiteSpace=wrap;" parent="vYEWgBYMP0RqRQ5xHcF0-138" vertex="1">
          <mxGeometry x="60" width="120" height="30" as="geometry">
            <mxRectangle width="120" height="30" as="alternateBounds" />
          </mxGeometry>
        </mxCell>
        <mxCell id="vYEWgBYMP0RqRQ5xHcF0-141" value="" style="shape=tableRow;horizontal=0;startSize=0;swimlaneHead=0;swimlaneBody=0;fillColor=none;collapsible=0;dropTarget=0;points=[[0,0.5],[1,0.5]];portConstraint=eastwest;top=0;left=0;right=0;bottom=0;html=1;" parent="vYEWgBYMP0RqRQ5xHcF0-137" vertex="1">
          <mxGeometry y="110" width="180" height="30" as="geometry" />
        </mxCell>
        <mxCell id="vYEWgBYMP0RqRQ5xHcF0-142" value="FK" style="shape=partialRectangle;connectable=0;fillColor=none;top=0;left=0;bottom=0;right=0;fontStyle=1;overflow=hidden;html=1;whiteSpace=wrap;" parent="vYEWgBYMP0RqRQ5xHcF0-141" vertex="1">
          <mxGeometry width="60" height="30" as="geometry">
            <mxRectangle width="60" height="30" as="alternateBounds" />
          </mxGeometry>
        </mxCell>
        <mxCell id="vYEWgBYMP0RqRQ5xHcF0-143" value="IdPaciente" style="shape=partialRectangle;connectable=0;fillColor=none;top=0;left=0;bottom=0;right=0;align=left;spacingLeft=6;fontStyle=5;overflow=hidden;html=1;whiteSpace=wrap;" parent="vYEWgBYMP0RqRQ5xHcF0-141" vertex="1">
          <mxGeometry x="60" width="120" height="30" as="geometry">
            <mxRectangle width="120" height="30" as="alternateBounds" />
          </mxGeometry>
        </mxCell>
        <mxCell id="vYEWgBYMP0RqRQ5xHcF0-147" value="" style="shape=tableRow;horizontal=0;startSize=0;swimlaneHead=0;swimlaneBody=0;fillColor=none;collapsible=0;dropTarget=0;points=[[0,0.5],[1,0.5]];portConstraint=eastwest;top=0;left=0;right=0;bottom=0;html=1;" parent="vYEWgBYMP0RqRQ5xHcF0-137" vertex="1">
          <mxGeometry y="140" width="180" height="30" as="geometry" />
        </mxCell>
        <mxCell id="vYEWgBYMP0RqRQ5xHcF0-148" value="" style="shape=partialRectangle;connectable=0;fillColor=none;top=0;left=0;bottom=0;right=0;editable=1;overflow=hidden;html=1;whiteSpace=wrap;" parent="vYEWgBYMP0RqRQ5xHcF0-147" vertex="1">
          <mxGeometry width="60" height="30" as="geometry">
            <mxRectangle width="60" height="30" as="alternateBounds" />
          </mxGeometry>
        </mxCell>
        <mxCell id="vYEWgBYMP0RqRQ5xHcF0-149" value="Hora" style="shape=partialRectangle;connectable=0;fillColor=none;top=0;left=0;bottom=0;right=0;align=left;spacingLeft=6;overflow=hidden;html=1;whiteSpace=wrap;" parent="vYEWgBYMP0RqRQ5xHcF0-147" vertex="1">
          <mxGeometry x="60" width="120" height="30" as="geometry">
            <mxRectangle width="120" height="30" as="alternateBounds" />
          </mxGeometry>
        </mxCell>
        <mxCell id="2X15lVWfk-3AgOlMRwci-8" style="shape=tableRow;horizontal=0;startSize=0;swimlaneHead=0;swimlaneBody=0;fillColor=none;collapsible=0;dropTarget=0;points=[[0,0.5],[1,0.5]];portConstraint=eastwest;top=0;left=0;right=0;bottom=0;html=1;" vertex="1" parent="vYEWgBYMP0RqRQ5xHcF0-137">
          <mxGeometry y="170" width="180" height="30" as="geometry" />
        </mxCell>
        <mxCell id="2X15lVWfk-3AgOlMRwci-9" style="shape=partialRectangle;connectable=0;fillColor=none;top=0;left=0;bottom=0;right=0;editable=1;overflow=hidden;html=1;whiteSpace=wrap;" vertex="1" parent="2X15lVWfk-3AgOlMRwci-8">
          <mxGeometry width="60" height="30" as="geometry">
            <mxRectangle width="60" height="30" as="alternateBounds" />
          </mxGeometry>
        </mxCell>
        <mxCell id="2X15lVWfk-3AgOlMRwci-10" value="Data" style="shape=partialRectangle;connectable=0;fillColor=none;top=0;left=0;bottom=0;right=0;align=left;spacingLeft=6;overflow=hidden;html=1;whiteSpace=wrap;" vertex="1" parent="2X15lVWfk-3AgOlMRwci-8">
          <mxGeometry x="60" width="120" height="30" as="geometry">
            <mxRectangle width="120" height="30" as="alternateBounds" />
          </mxGeometry>
        </mxCell>
        <mxCell id="vYEWgBYMP0RqRQ5xHcF0-175" value="Prontuario" style="shape=table;startSize=30;container=1;collapsible=1;childLayout=tableLayout;fixedRows=1;rowLines=0;fontStyle=1;align=center;resizeLast=1;html=1;whiteSpace=wrap;" parent="1" vertex="1">
          <mxGeometry x="1085" y="950" width="180" height="180" as="geometry" />
        </mxCell>
        <mxCell id="vYEWgBYMP0RqRQ5xHcF0-176" value="" style="shape=tableRow;horizontal=0;startSize=0;swimlaneHead=0;swimlaneBody=0;fillColor=none;collapsible=0;dropTarget=0;points=[[0,0.5],[1,0.5]];portConstraint=eastwest;top=0;left=0;right=0;bottom=0;html=1;" parent="vYEWgBYMP0RqRQ5xHcF0-175" vertex="1">
          <mxGeometry y="30" width="180" height="30" as="geometry" />
        </mxCell>
        <mxCell id="vYEWgBYMP0RqRQ5xHcF0-177" value="PK" style="shape=partialRectangle;connectable=0;fillColor=none;top=0;left=0;bottom=0;right=0;fontStyle=1;overflow=hidden;html=1;whiteSpace=wrap;" parent="vYEWgBYMP0RqRQ5xHcF0-176" vertex="1">
          <mxGeometry width="60" height="30" as="geometry">
            <mxRectangle width="60" height="30" as="alternateBounds" />
          </mxGeometry>
        </mxCell>
        <mxCell id="vYEWgBYMP0RqRQ5xHcF0-178" value="IdProntuario" style="shape=partialRectangle;connectable=0;fillColor=none;top=0;left=0;bottom=0;right=0;align=left;spacingLeft=6;fontStyle=5;overflow=hidden;html=1;whiteSpace=wrap;" parent="vYEWgBYMP0RqRQ5xHcF0-176" vertex="1">
          <mxGeometry x="60" width="120" height="30" as="geometry">
            <mxRectangle width="120" height="30" as="alternateBounds" />
          </mxGeometry>
        </mxCell>
        <mxCell id="vYEWgBYMP0RqRQ5xHcF0-179" value="" style="shape=tableRow;horizontal=0;startSize=0;swimlaneHead=0;swimlaneBody=0;fillColor=none;collapsible=0;dropTarget=0;points=[[0,0.5],[1,0.5]];portConstraint=eastwest;top=0;left=0;right=0;bottom=1;html=1;" parent="vYEWgBYMP0RqRQ5xHcF0-175" vertex="1">
          <mxGeometry y="60" width="180" height="30" as="geometry" />
        </mxCell>
        <mxCell id="vYEWgBYMP0RqRQ5xHcF0-180" value="FK2" style="shape=partialRectangle;connectable=0;fillColor=none;top=0;left=0;bottom=0;right=0;fontStyle=1;overflow=hidden;html=1;whiteSpace=wrap;" parent="vYEWgBYMP0RqRQ5xHcF0-179" vertex="1">
          <mxGeometry width="60" height="30" as="geometry">
            <mxRectangle width="60" height="30" as="alternateBounds" />
          </mxGeometry>
        </mxCell>
        <mxCell id="vYEWgBYMP0RqRQ5xHcF0-181" value="IdConsulta" style="shape=partialRectangle;connectable=0;fillColor=none;top=0;left=0;bottom=0;right=0;align=left;spacingLeft=6;fontStyle=5;overflow=hidden;html=1;whiteSpace=wrap;" parent="vYEWgBYMP0RqRQ5xHcF0-179" vertex="1">
          <mxGeometry x="60" width="120" height="30" as="geometry">
            <mxRectangle width="120" height="30" as="alternateBounds" />
          </mxGeometry>
        </mxCell>
        <mxCell id="vYEWgBYMP0RqRQ5xHcF0-182" value="" style="shape=tableRow;horizontal=0;startSize=0;swimlaneHead=0;swimlaneBody=0;fillColor=none;collapsible=0;dropTarget=0;points=[[0,0.5],[1,0.5]];portConstraint=eastwest;top=0;left=0;right=0;bottom=0;html=1;" parent="vYEWgBYMP0RqRQ5xHcF0-175" vertex="1">
          <mxGeometry y="90" width="180" height="30" as="geometry" />
        </mxCell>
        <mxCell id="vYEWgBYMP0RqRQ5xHcF0-183" value="" style="shape=partialRectangle;connectable=0;fillColor=none;top=0;left=0;bottom=0;right=0;editable=1;overflow=hidden;html=1;whiteSpace=wrap;" parent="vYEWgBYMP0RqRQ5xHcF0-182" vertex="1">
          <mxGeometry width="60" height="30" as="geometry">
            <mxRectangle width="60" height="30" as="alternateBounds" />
          </mxGeometry>
        </mxCell>
        <mxCell id="vYEWgBYMP0RqRQ5xHcF0-184" value="Numero" style="shape=partialRectangle;connectable=0;fillColor=none;top=0;left=0;bottom=0;right=0;align=left;spacingLeft=6;overflow=hidden;html=1;whiteSpace=wrap;" parent="vYEWgBYMP0RqRQ5xHcF0-182" vertex="1">
          <mxGeometry x="60" width="120" height="30" as="geometry">
            <mxRectangle width="120" height="30" as="alternateBounds" />
          </mxGeometry>
        </mxCell>
        <mxCell id="vYEWgBYMP0RqRQ5xHcF0-185" value="" style="shape=tableRow;horizontal=0;startSize=0;swimlaneHead=0;swimlaneBody=0;fillColor=none;collapsible=0;dropTarget=0;points=[[0,0.5],[1,0.5]];portConstraint=eastwest;top=0;left=0;right=0;bottom=0;html=1;" parent="vYEWgBYMP0RqRQ5xHcF0-175" vertex="1">
          <mxGeometry y="120" width="180" height="30" as="geometry" />
        </mxCell>
        <mxCell id="vYEWgBYMP0RqRQ5xHcF0-186" value="" style="shape=partialRectangle;connectable=0;fillColor=none;top=0;left=0;bottom=0;right=0;editable=1;overflow=hidden;html=1;whiteSpace=wrap;" parent="vYEWgBYMP0RqRQ5xHcF0-185" vertex="1">
          <mxGeometry width="60" height="30" as="geometry">
            <mxRectangle width="60" height="30" as="alternateBounds" />
          </mxGeometry>
        </mxCell>
        <mxCell id="vYEWgBYMP0RqRQ5xHcF0-187" value="Diagnostico" style="shape=partialRectangle;connectable=0;fillColor=none;top=0;left=0;bottom=0;right=0;align=left;spacingLeft=6;overflow=hidden;html=1;whiteSpace=wrap;" parent="vYEWgBYMP0RqRQ5xHcF0-185" vertex="1">
          <mxGeometry x="60" width="120" height="30" as="geometry">
            <mxRectangle width="120" height="30" as="alternateBounds" />
          </mxGeometry>
        </mxCell>
        <mxCell id="vYEWgBYMP0RqRQ5xHcF0-188" style="shape=tableRow;horizontal=0;startSize=0;swimlaneHead=0;swimlaneBody=0;fillColor=none;collapsible=0;dropTarget=0;points=[[0,0.5],[1,0.5]];portConstraint=eastwest;top=0;left=0;right=0;bottom=0;html=1;" parent="vYEWgBYMP0RqRQ5xHcF0-175" vertex="1">
          <mxGeometry y="150" width="180" height="30" as="geometry" />
        </mxCell>
        <mxCell id="vYEWgBYMP0RqRQ5xHcF0-189" style="shape=partialRectangle;connectable=0;fillColor=none;top=0;left=0;bottom=0;right=0;editable=1;overflow=hidden;html=1;whiteSpace=wrap;" parent="vYEWgBYMP0RqRQ5xHcF0-188" vertex="1">
          <mxGeometry width="60" height="30" as="geometry">
            <mxRectangle width="60" height="30" as="alternateBounds" />
          </mxGeometry>
        </mxCell>
        <mxCell id="vYEWgBYMP0RqRQ5xHcF0-190" value="Preescricao" style="shape=partialRectangle;connectable=0;fillColor=none;top=0;left=0;bottom=0;right=0;align=left;spacingLeft=6;overflow=hidden;html=1;whiteSpace=wrap;" parent="vYEWgBYMP0RqRQ5xHcF0-188" vertex="1">
          <mxGeometry x="60" width="120" height="30" as="geometry">
            <mxRectangle width="120" height="30" as="alternateBounds" />
          </mxGeometry>
        </mxCell>
        <mxCell id="vYEWgBYMP0RqRQ5xHcF0-197" value="Feedback" style="shape=table;startSize=30;container=1;collapsible=1;childLayout=tableLayout;fixedRows=1;rowLines=0;fontStyle=1;align=center;resizeLast=1;html=1;whiteSpace=wrap;" parent="1" vertex="1">
          <mxGeometry x="480" y="810" width="180" height="120" as="geometry" />
        </mxCell>
        <mxCell id="vYEWgBYMP0RqRQ5xHcF0-198" value="" style="shape=tableRow;horizontal=0;startSize=0;swimlaneHead=0;swimlaneBody=0;fillColor=none;collapsible=0;dropTarget=0;points=[[0,0.5],[1,0.5]];portConstraint=eastwest;top=0;left=0;right=0;bottom=0;html=1;" parent="vYEWgBYMP0RqRQ5xHcF0-197" vertex="1">
          <mxGeometry y="30" width="180" height="30" as="geometry" />
        </mxCell>
        <mxCell id="vYEWgBYMP0RqRQ5xHcF0-199" value="PK" style="shape=partialRectangle;connectable=0;fillColor=none;top=0;left=0;bottom=0;right=0;fontStyle=1;overflow=hidden;html=1;whiteSpace=wrap;" parent="vYEWgBYMP0RqRQ5xHcF0-198" vertex="1">
          <mxGeometry width="60" height="30" as="geometry">
            <mxRectangle width="60" height="30" as="alternateBounds" />
          </mxGeometry>
        </mxCell>
        <mxCell id="vYEWgBYMP0RqRQ5xHcF0-200" value="IdFeedback" style="shape=partialRectangle;connectable=0;fillColor=none;top=0;left=0;bottom=0;right=0;align=left;spacingLeft=6;fontStyle=5;overflow=hidden;html=1;whiteSpace=wrap;" parent="vYEWgBYMP0RqRQ5xHcF0-198" vertex="1">
          <mxGeometry x="60" width="120" height="30" as="geometry">
            <mxRectangle width="120" height="30" as="alternateBounds" />
          </mxGeometry>
        </mxCell>
        <mxCell id="vYEWgBYMP0RqRQ5xHcF0-201" value="" style="shape=tableRow;horizontal=0;startSize=0;swimlaneHead=0;swimlaneBody=0;fillColor=none;collapsible=0;dropTarget=0;points=[[0,0.5],[1,0.5]];portConstraint=eastwest;top=0;left=0;right=0;bottom=1;html=1;" parent="vYEWgBYMP0RqRQ5xHcF0-197" vertex="1">
          <mxGeometry y="60" width="180" height="30" as="geometry" />
        </mxCell>
        <mxCell id="vYEWgBYMP0RqRQ5xHcF0-202" value="FK2" style="shape=partialRectangle;connectable=0;fillColor=none;top=0;left=0;bottom=0;right=0;fontStyle=1;overflow=hidden;html=1;whiteSpace=wrap;" parent="vYEWgBYMP0RqRQ5xHcF0-201" vertex="1">
          <mxGeometry width="60" height="30" as="geometry">
            <mxRectangle width="60" height="30" as="alternateBounds" />
          </mxGeometry>
        </mxCell>
        <mxCell id="vYEWgBYMP0RqRQ5xHcF0-203" value="IdConsulta" style="shape=partialRectangle;connectable=0;fillColor=none;top=0;left=0;bottom=0;right=0;align=left;spacingLeft=6;fontStyle=5;overflow=hidden;html=1;whiteSpace=wrap;" parent="vYEWgBYMP0RqRQ5xHcF0-201" vertex="1">
          <mxGeometry x="60" width="120" height="30" as="geometry">
            <mxRectangle width="120" height="30" as="alternateBounds" />
          </mxGeometry>
        </mxCell>
        <mxCell id="vYEWgBYMP0RqRQ5xHcF0-204" value="" style="shape=tableRow;horizontal=0;startSize=0;swimlaneHead=0;swimlaneBody=0;fillColor=none;collapsible=0;dropTarget=0;points=[[0,0.5],[1,0.5]];portConstraint=eastwest;top=0;left=0;right=0;bottom=0;html=1;" parent="vYEWgBYMP0RqRQ5xHcF0-197" vertex="1">
          <mxGeometry y="90" width="180" height="30" as="geometry" />
        </mxCell>
        <mxCell id="vYEWgBYMP0RqRQ5xHcF0-205" value="" style="shape=partialRectangle;connectable=0;fillColor=none;top=0;left=0;bottom=0;right=0;editable=1;overflow=hidden;html=1;whiteSpace=wrap;" parent="vYEWgBYMP0RqRQ5xHcF0-204" vertex="1">
          <mxGeometry width="60" height="30" as="geometry">
            <mxRectangle width="60" height="30" as="alternateBounds" />
          </mxGeometry>
        </mxCell>
        <mxCell id="vYEWgBYMP0RqRQ5xHcF0-206" value="Comentario" style="shape=partialRectangle;connectable=0;fillColor=none;top=0;left=0;bottom=0;right=0;align=left;spacingLeft=6;overflow=hidden;html=1;whiteSpace=wrap;" parent="vYEWgBYMP0RqRQ5xHcF0-204" vertex="1">
          <mxGeometry x="60" width="120" height="30" as="geometry">
            <mxRectangle width="120" height="30" as="alternateBounds" />
          </mxGeometry>
        </mxCell>
        <mxCell id="vYEWgBYMP0RqRQ5xHcF0-216" value="" style="edgeStyle=entityRelationEdgeStyle;fontSize=12;html=1;endArrow=ERoneToMany;rounded=0;exitX=1;exitY=0.5;exitDx=0;exitDy=0;entryX=0;entryY=0.5;entryDx=0;entryDy=0;" parent="1" source="z1vdd2tGaupWYWKLR3hU-166" target="z1vdd2tGaupWYWKLR3hU-178" edge="1">
          <mxGeometry width="100" height="100" relative="1" as="geometry">
            <mxPoint x="520" y="750" as="sourcePoint" />
            <mxPoint x="620" y="650" as="targetPoint" />
          </mxGeometry>
        </mxCell>
        <mxCell id="vYEWgBYMP0RqRQ5xHcF0-220" value="" style="edgeStyle=entityRelationEdgeStyle;fontSize=12;html=1;endArrow=ERoneToMany;rounded=0;exitX=0;exitY=0.5;exitDx=0;exitDy=0;" parent="1" source="z1vdd2tGaupWYWKLR3hU-150" target="vYEWgBYMP0RqRQ5xHcF0-113" edge="1">
          <mxGeometry width="100" height="100" relative="1" as="geometry">
            <mxPoint x="520" y="1000" as="sourcePoint" />
            <mxPoint x="620" y="900" as="targetPoint" />
          </mxGeometry>
        </mxCell>
        <mxCell id="vYEWgBYMP0RqRQ5xHcF0-224" value="" style="edgeStyle=entityRelationEdgeStyle;fontSize=12;html=1;endArrow=ERoneToMany;rounded=0;" parent="1" source="vYEWgBYMP0RqRQ5xHcF0-217" target="z1vdd2tGaupWYWKLR3hU-214" edge="1">
          <mxGeometry width="100" height="100" relative="1" as="geometry">
            <mxPoint x="560" y="1000" as="sourcePoint" />
            <mxPoint x="660" y="900" as="targetPoint" />
            <Array as="points">
              <mxPoint x="730" y="980" />
            </Array>
          </mxGeometry>
        </mxCell>
        <mxCell id="vYEWgBYMP0RqRQ5xHcF0-233" value="1" style="text;html=1;align=center;verticalAlign=middle;resizable=0;points=[];autosize=1;strokeColor=none;fillColor=none;" parent="1" vertex="1">
          <mxGeometry x="1005" y="-32" width="30" height="30" as="geometry" />
        </mxCell>
        <mxCell id="vYEWgBYMP0RqRQ5xHcF0-234" value="n" style="text;html=1;align=center;verticalAlign=middle;resizable=0;points=[];autosize=1;strokeColor=none;fillColor=none;" parent="1" vertex="1">
          <mxGeometry x="590" y="50" width="30" height="30" as="geometry" />
        </mxCell>
        <mxCell id="vYEWgBYMP0RqRQ5xHcF0-235" value="1.n" style="text;html=1;align=center;verticalAlign=middle;resizable=0;points=[];autosize=1;strokeColor=none;fillColor=none;" parent="1" vertex="1">
          <mxGeometry x="870" y="58" width="40" height="30" as="geometry" />
        </mxCell>
        <mxCell id="vYEWgBYMP0RqRQ5xHcF0-240" value="" style="edgeStyle=entityRelationEdgeStyle;fontSize=12;html=1;endArrow=ERmandOne;startArrow=ERmandOne;rounded=0;exitX=0.015;exitY=0.633;exitDx=0;exitDy=0;entryX=1;entryY=0.5;entryDx=0;entryDy=0;exitPerimeter=0;" parent="1" source="vYEWgBYMP0RqRQ5xHcF0-144" target="vYEWgBYMP0RqRQ5xHcF0-198" edge="1">
          <mxGeometry width="100" height="100" relative="1" as="geometry">
            <mxPoint x="500" y="1080" as="sourcePoint" />
            <mxPoint x="600" y="980" as="targetPoint" />
          </mxGeometry>
        </mxCell>
        <mxCell id="vYEWgBYMP0RqRQ5xHcF0-243" value="" style="edgeStyle=entityRelationEdgeStyle;fontSize=12;html=1;endArrow=ERoneToMany;rounded=0;" parent="1" target="vYEWgBYMP0RqRQ5xHcF0-110" edge="1" source="vYEWgBYMP0RqRQ5xHcF0-217">
          <mxGeometry width="100" height="100" relative="1" as="geometry">
            <mxPoint x="450" y="605" as="sourcePoint" />
            <mxPoint x="715" y="605" as="targetPoint" />
            <Array as="points">
              <mxPoint x="740" y="990" />
            </Array>
          </mxGeometry>
        </mxCell>
        <mxCell id="vYEWgBYMP0RqRQ5xHcF0-244" value="" style="edgeStyle=entityRelationEdgeStyle;fontSize=12;html=1;endArrow=ERoneToMany;rounded=0;entryX=0;entryY=0.5;entryDx=0;entryDy=0;" parent="1" source="z1vdd2tGaupWYWKLR3hU-211" target="vYEWgBYMP0RqRQ5xHcF0-141" edge="1">
          <mxGeometry width="100" height="100" relative="1" as="geometry">
            <mxPoint x="560" y="1060" as="sourcePoint" />
            <mxPoint x="660" y="960" as="targetPoint" />
          </mxGeometry>
        </mxCell>
        <mxCell id="vYEWgBYMP0RqRQ5xHcF0-245" value="" style="edgeStyle=entityRelationEdgeStyle;fontSize=12;html=1;endArrow=ERoneToMany;rounded=0;" parent="1" source="vYEWgBYMP0RqRQ5xHcF0-131" target="vYEWgBYMP0RqRQ5xHcF0-138" edge="1">
          <mxGeometry width="100" height="100" relative="1" as="geometry">
            <mxPoint x="560" y="890" as="sourcePoint" />
            <mxPoint x="660" y="790" as="targetPoint" />
          </mxGeometry>
        </mxCell>
        <mxCell id="vYEWgBYMP0RqRQ5xHcF0-246" value="" style="edgeStyle=entityRelationEdgeStyle;fontSize=12;html=1;endArrow=ERoneToMany;rounded=0;entryX=1;entryY=0.5;entryDx=0;entryDy=0;" parent="1" source="vYEWgBYMP0RqRQ5xHcF0-179" target="vYEWgBYMP0RqRQ5xHcF0-227" edge="1">
          <mxGeometry width="100" height="100" relative="1" as="geometry">
            <mxPoint x="560" y="1060" as="sourcePoint" />
            <mxPoint x="660" y="960" as="targetPoint" />
          </mxGeometry>
        </mxCell>
        <mxCell id="2X15lVWfk-3AgOlMRwci-7" value="" style="edgeStyle=entityRelationEdgeStyle;fontSize=12;html=1;endArrow=ERmandOne;startArrow=ERmandOne;rounded=0;" edge="1" parent="1" source="vYEWgBYMP0RqRQ5xHcF0-201" target="vYEWgBYMP0RqRQ5xHcF0-227">
          <mxGeometry width="100" height="100" relative="1" as="geometry">
            <mxPoint x="570" y="1130" as="sourcePoint" />
            <mxPoint x="670" y="1030" as="targetPoint" />
          </mxGeometry>
        </mxCell>
      </root>
    </mxGraphModel>
  </diagram>
</mxfile>
